M48
; DRILL file {KiCad 5.1.2-f72e74a~84~ubuntu16.04.1} date Mon May  6 13:36:43 2019
; FORMAT={-:-/ absolute / metric / decimal}
; #@! TF.CreationDate,2019-05-06T13:36:43+08:00
; #@! TF.GenerationSoftware,Kicad,Pcbnew,5.1.2-f72e74a~84~ubuntu16.04.1
; #@! TF.FileFunction,Plated,1,2,PTH
FMAT,2
METRIC
T1C0.400
T2C0.800
T3C6.326
%
G90
G05
T1
X75.24Y-116.08
X75.79Y-110.39
X76.86Y-96.11
X77.81Y-122.22
X78.94Y-110.04
X78.94Y-111.17
X81.39Y-97.04
X82.05Y-122.204
X82.138Y-97.851
X83.3Y-129.96
X83.38Y-141.93
X83.4Y-154.1
X84.149Y-97.081
X84.76Y-89.1
X84.8Y-66.02
X88.64Y-122.07
X89.36Y-109.46
X90.422Y-112.904
X91.99Y-114.79
X92.52Y-121.57
X93.52Y-102.85
X93.53Y-107.85
T2
X87.97Y-99.75
X87.97Y-102.29
X87.97Y-104.83
X87.97Y-107.37
X95.59Y-99.75
X95.59Y-102.29
X95.59Y-104.83
X95.59Y-107.37
T3
X78.867Y-103.731
X78.867Y-129.976
X78.867Y-141.949
X78.867Y-154.087
X91.86Y-129.976
X91.86Y-141.949
X91.86Y-154.087
T0
M30
