G04 #@! TF.GenerationSoftware,KiCad,Pcbnew,5.1.2-f72e74a~84~ubuntu16.04.1*
G04 #@! TF.CreationDate,2019-05-06T13:36:40+08:00*
G04 #@! TF.ProjectId,8Bit_EuroRack,38426974-5f45-4757-926f-5261636b2e6b,rev?*
G04 #@! TF.SameCoordinates,Original*
G04 #@! TF.FileFunction,Soldermask,Bot*
G04 #@! TF.FilePolarity,Negative*
%FSLAX46Y46*%
G04 Gerber Fmt 4.6, Leading zero omitted, Abs format (unit mm)*
G04 Created by KiCad (PCBNEW 5.1.2-f72e74a~84~ubuntu16.04.1) date 2019-05-06 13:36:40*
%MOMM*%
%LPD*%
G04 APERTURE LIST*
%ADD10C,0.010000*%
%ADD11C,6.725864*%
%ADD12R,1.820000X1.420000*%
%ADD13R,1.720000X1.320000*%
%ADD14R,1.420000X1.820000*%
%ADD15R,3.410000X1.910000*%
%ADD16O,3.410000X1.910000*%
%ADD17O,2.220000X1.620000*%
%ADD18O,2.540000X3.800000*%
G04 APERTURE END LIST*
D10*
G36*
X92200969Y-46875007D02*
G01*
X92227073Y-46969422D01*
X92260522Y-47107134D01*
X92296920Y-47268232D01*
X92331872Y-47432809D01*
X92360983Y-47580954D01*
X92379859Y-47692759D01*
X92384655Y-47740969D01*
X92359799Y-47780592D01*
X92275593Y-47799557D01*
X92177509Y-47802858D01*
X91970364Y-47802858D01*
X92070161Y-47331651D01*
X92111191Y-47143050D01*
X92147122Y-46987323D01*
X92173836Y-46881726D01*
X92186604Y-46843798D01*
X92200969Y-46875007D01*
X92200969Y-46875007D01*
G37*
X92200969Y-46875007D02*
X92227073Y-46969422D01*
X92260522Y-47107134D01*
X92296920Y-47268232D01*
X92331872Y-47432809D01*
X92360983Y-47580954D01*
X92379859Y-47692759D01*
X92384655Y-47740969D01*
X92359799Y-47780592D01*
X92275593Y-47799557D01*
X92177509Y-47802858D01*
X91970364Y-47802858D01*
X92070161Y-47331651D01*
X92111191Y-47143050D01*
X92147122Y-46987323D01*
X92173836Y-46881726D01*
X92186604Y-46843798D01*
X92200969Y-46875007D01*
G36*
X82970747Y-47252525D02*
G01*
X83011143Y-47439867D01*
X83043704Y-47598827D01*
X83064512Y-47709777D01*
X83070054Y-47749942D01*
X83031443Y-47785821D01*
X82912402Y-47801856D01*
X82856802Y-47802858D01*
X82730483Y-47798882D01*
X82670674Y-47782365D01*
X82659411Y-47746427D01*
X82663387Y-47728775D01*
X82682470Y-47648471D01*
X82710068Y-47517132D01*
X82732976Y-47400692D01*
X82768135Y-47228611D01*
X82806067Y-47060958D01*
X82827083Y-46977358D01*
X82872707Y-46808025D01*
X82970747Y-47252525D01*
X82970747Y-47252525D01*
G37*
X82970747Y-47252525D02*
X83011143Y-47439867D01*
X83043704Y-47598827D01*
X83064512Y-47709777D01*
X83070054Y-47749942D01*
X83031443Y-47785821D01*
X82912402Y-47801856D01*
X82856802Y-47802858D01*
X82730483Y-47798882D01*
X82670674Y-47782365D01*
X82659411Y-47746427D01*
X82663387Y-47728775D01*
X82682470Y-47648471D01*
X82710068Y-47517132D01*
X82732976Y-47400692D01*
X82768135Y-47228611D01*
X82806067Y-47060958D01*
X82827083Y-46977358D01*
X82872707Y-46808025D01*
X82970747Y-47252525D01*
G36*
X78457207Y-46832719D02*
G01*
X78465569Y-46878672D01*
X78488123Y-46990262D01*
X78521350Y-47150332D01*
X78558520Y-47326608D01*
X78659613Y-47802858D01*
X78452468Y-47802858D01*
X78317205Y-47794633D01*
X78253756Y-47767791D01*
X78245322Y-47744018D01*
X78253596Y-47673835D01*
X78275422Y-47548790D01*
X78306304Y-47390253D01*
X78341745Y-47219593D01*
X78377251Y-47058179D01*
X78408324Y-46927379D01*
X78430469Y-46848564D01*
X78436442Y-46835626D01*
X78457202Y-46832466D01*
X78457207Y-46832719D01*
X78457207Y-46832719D01*
G37*
X78457207Y-46832719D02*
X78465569Y-46878672D01*
X78488123Y-46990262D01*
X78521350Y-47150332D01*
X78558520Y-47326608D01*
X78659613Y-47802858D01*
X78452468Y-47802858D01*
X78317205Y-47794633D01*
X78253756Y-47767791D01*
X78245322Y-47744018D01*
X78253596Y-47673835D01*
X78275422Y-47548790D01*
X78306304Y-47390253D01*
X78341745Y-47219593D01*
X78377251Y-47058179D01*
X78408324Y-46927379D01*
X78430469Y-46848564D01*
X78436442Y-46835626D01*
X78457202Y-46832466D01*
X78457207Y-46832719D01*
G36*
X90902989Y-48480192D02*
G01*
X90743075Y-48480192D01*
X90609724Y-48462633D01*
X90497513Y-48419790D01*
X90488833Y-48414122D01*
X90387522Y-48316728D01*
X90315497Y-48179947D01*
X90267993Y-47989886D01*
X90240245Y-47732653D01*
X90237090Y-47680146D01*
X90232250Y-47319078D01*
X90262471Y-47031789D01*
X90329401Y-46814266D01*
X90434690Y-46662493D01*
X90579983Y-46572457D01*
X90703302Y-46544355D01*
X90902989Y-46521847D01*
X90902989Y-48480192D01*
X90902989Y-48480192D01*
G37*
X90902989Y-48480192D02*
X90743075Y-48480192D01*
X90609724Y-48462633D01*
X90497513Y-48419790D01*
X90488833Y-48414122D01*
X90387522Y-48316728D01*
X90315497Y-48179947D01*
X90267993Y-47989886D01*
X90240245Y-47732653D01*
X90237090Y-47680146D01*
X90232250Y-47319078D01*
X90262471Y-47031789D01*
X90329401Y-46814266D01*
X90434690Y-46662493D01*
X90579983Y-46572457D01*
X90703302Y-46544355D01*
X90902989Y-46521847D01*
X90902989Y-48480192D01*
G36*
X85600739Y-45358022D02*
G01*
X95834822Y-45368692D01*
X95845804Y-47453608D01*
X95856786Y-49538525D01*
X75366655Y-49538525D01*
X75366655Y-48866374D01*
X85525459Y-48866374D01*
X85679021Y-48853199D01*
X85832584Y-48840025D01*
X86012501Y-48332025D01*
X86098215Y-48093925D01*
X86190889Y-47842863D01*
X86278152Y-47612040D01*
X86335787Y-47464192D01*
X86479155Y-47104358D01*
X86490597Y-47982775D01*
X86502040Y-48861192D01*
X86838989Y-48861192D01*
X86838989Y-46151858D01*
X87262322Y-46151858D01*
X87262322Y-48861192D01*
X87600989Y-48861192D01*
X87600989Y-48480192D01*
X88489989Y-48480192D01*
X88489989Y-48861192D01*
X89549511Y-48861192D01*
X89538431Y-47528776D01*
X89860680Y-47528776D01*
X89882848Y-47851990D01*
X89954760Y-48203825D01*
X90066291Y-48481705D01*
X90218289Y-48686941D01*
X90411602Y-48820845D01*
X90537427Y-48864964D01*
X90657077Y-48878918D01*
X90821092Y-48879113D01*
X90992758Y-48867439D01*
X91103610Y-48850608D01*
X91453512Y-48850608D01*
X91490979Y-48857252D01*
X91584746Y-48860931D01*
X91621849Y-48861192D01*
X91735577Y-48852715D01*
X91791855Y-48818544D01*
X91812696Y-48765942D01*
X91831081Y-48670165D01*
X91853726Y-48529215D01*
X91866863Y-48437858D01*
X91898708Y-48205025D01*
X92182730Y-48192537D01*
X92319180Y-48186831D01*
X92408548Y-48193847D01*
X92463506Y-48228122D01*
X92496724Y-48304194D01*
X92520872Y-48436601D01*
X92544125Y-48607192D01*
X92575899Y-48840025D01*
X92748648Y-48852710D01*
X92921397Y-48865396D01*
X92920645Y-48861192D01*
X93092812Y-48861192D01*
X93442989Y-48861192D01*
X93445428Y-48130942D01*
X93447976Y-47877181D01*
X93453469Y-47640769D01*
X93461250Y-47439901D01*
X93470664Y-47292770D01*
X93477873Y-47231501D01*
X93490361Y-47173896D01*
X93504219Y-47152419D01*
X93522799Y-47175537D01*
X93549451Y-47251718D01*
X93587524Y-47389428D01*
X93640370Y-47597134D01*
X93670518Y-47718335D01*
X93727397Y-47947460D01*
X93778233Y-48151681D01*
X93819036Y-48315005D01*
X93845813Y-48421440D01*
X93853358Y-48450854D01*
X93893201Y-48505344D01*
X93985450Y-48516070D01*
X94006355Y-48514354D01*
X94091036Y-48496779D01*
X94141260Y-48449506D01*
X94178350Y-48348704D01*
X94188455Y-48310858D01*
X94217964Y-48196822D01*
X94262796Y-48023545D01*
X94317071Y-47813756D01*
X94374909Y-47590185D01*
X94380124Y-47570025D01*
X94522489Y-47019692D01*
X94548669Y-47506525D01*
X94560620Y-47761884D01*
X94571005Y-48043859D01*
X94578309Y-48308568D01*
X94580419Y-48427275D01*
X94585989Y-48861192D01*
X94930772Y-48861192D01*
X94907209Y-48384942D01*
X94896801Y-48160487D01*
X94885014Y-47883729D01*
X94873172Y-47586989D01*
X94862598Y-47302587D01*
X94860838Y-47252525D01*
X94851087Y-47004728D01*
X94839726Y-46767928D01*
X94827938Y-46563786D01*
X94816902Y-46413958D01*
X94812964Y-46374108D01*
X94795811Y-46245129D01*
X94771403Y-46179197D01*
X94723630Y-46155158D01*
X94643703Y-46151858D01*
X94586396Y-46152975D01*
X94540391Y-46162942D01*
X94500928Y-46191686D01*
X94463247Y-46249134D01*
X94422589Y-46345211D01*
X94374193Y-46489845D01*
X94313300Y-46692962D01*
X94235150Y-46964487D01*
X94207269Y-47062025D01*
X94140290Y-47288760D01*
X94079866Y-47479095D01*
X94030015Y-47621497D01*
X93994756Y-47704435D01*
X93978619Y-47718192D01*
X93959021Y-47653883D01*
X93922882Y-47526514D01*
X93875447Y-47354842D01*
X93824714Y-47167858D01*
X93763015Y-46943646D01*
X93698837Y-46718949D01*
X93640845Y-46523693D01*
X93606480Y-46414138D01*
X93519219Y-46147250D01*
X93364687Y-46160138D01*
X93210155Y-46173025D01*
X93183076Y-46554025D01*
X93173542Y-46711921D01*
X93162375Y-46935423D01*
X93150404Y-47205504D01*
X93138462Y-47503138D01*
X93127377Y-47809300D01*
X93124404Y-47898108D01*
X93092812Y-48861192D01*
X92920645Y-48861192D01*
X92820674Y-48302377D01*
X92778885Y-48079184D01*
X92725753Y-47810983D01*
X92665234Y-47516265D01*
X92601283Y-47213519D01*
X92537852Y-46921236D01*
X92478898Y-46657906D01*
X92428375Y-46442018D01*
X92392420Y-46300025D01*
X92358148Y-46215810D01*
X92297075Y-46175845D01*
X92188726Y-46160397D01*
X92019600Y-46147769D01*
X91861430Y-46816564D01*
X91820697Y-46995193D01*
X91772308Y-47217529D01*
X91719130Y-47469276D01*
X91664031Y-47736139D01*
X91609878Y-48003822D01*
X91559536Y-48258029D01*
X91515875Y-48484464D01*
X91481759Y-48668832D01*
X91460057Y-48796836D01*
X91453512Y-48850608D01*
X91103610Y-48850608D01*
X91135363Y-48845787D01*
X91184792Y-48831620D01*
X91201324Y-48810609D01*
X91214481Y-48756377D01*
X91224600Y-48661022D01*
X91232022Y-48516642D01*
X91237086Y-48315334D01*
X91240131Y-48049196D01*
X91241496Y-47710325D01*
X91241655Y-47507287D01*
X91241655Y-46204775D01*
X91109363Y-46178317D01*
X90790719Y-46144769D01*
X90517951Y-46180005D01*
X90293012Y-46283280D01*
X90117858Y-46453850D01*
X90038676Y-46585719D01*
X89940273Y-46858035D01*
X89879859Y-47181181D01*
X89860680Y-47528776D01*
X89538431Y-47528776D01*
X89538333Y-47517108D01*
X89527155Y-46173025D01*
X89029739Y-46161098D01*
X88532322Y-46149171D01*
X88532322Y-46532858D01*
X89167322Y-46532858D01*
X89167322Y-47248656D01*
X88595822Y-47273692D01*
X88582804Y-47453608D01*
X88569787Y-47633525D01*
X89167322Y-47633525D01*
X89167322Y-48480192D01*
X88489989Y-48480192D01*
X87600989Y-48480192D01*
X87600989Y-46151858D01*
X87262322Y-46151858D01*
X86838989Y-46151858D01*
X86694791Y-46151858D01*
X86632268Y-46154334D01*
X86584497Y-46170563D01*
X86541727Y-46213745D01*
X86494205Y-46297079D01*
X86432179Y-46433765D01*
X86358581Y-46606942D01*
X86261744Y-46839401D01*
X86158277Y-47092548D01*
X86063670Y-47328295D01*
X86018580Y-47443025D01*
X85870590Y-47824025D01*
X85865322Y-46146747D01*
X85547822Y-46173025D01*
X85536640Y-47519699D01*
X85525459Y-48866374D01*
X75366655Y-48866374D01*
X75366655Y-46151858D01*
X76170989Y-46151858D01*
X76170989Y-48861192D01*
X76315269Y-48861192D01*
X76394107Y-48856655D01*
X76445958Y-48830935D01*
X76486844Y-48765864D01*
X76532785Y-48643274D01*
X76548588Y-48596608D01*
X76595644Y-48462384D01*
X76665305Y-48270805D01*
X76749603Y-48043468D01*
X76840566Y-47801970D01*
X76880558Y-47697025D01*
X77123489Y-47062025D01*
X77134914Y-47961608D01*
X77146339Y-48861192D01*
X77483322Y-48861192D01*
X77483322Y-48821304D01*
X77708878Y-48821304D01*
X77733035Y-48853353D01*
X77810488Y-48857240D01*
X77875110Y-48853014D01*
X78054078Y-48840025D01*
X78085852Y-48607192D01*
X78112351Y-48414520D01*
X78136997Y-48290720D01*
X78172474Y-48221256D01*
X78231468Y-48191589D01*
X78326665Y-48187183D01*
X78447690Y-48192537D01*
X78732155Y-48205025D01*
X78782415Y-48522525D01*
X78806714Y-48675269D01*
X78825330Y-48790868D01*
X78834838Y-48848089D01*
X78835332Y-48850608D01*
X78874676Y-48857341D01*
X78969239Y-48860981D01*
X79001741Y-48861192D01*
X79165493Y-48861192D01*
X79064129Y-48279108D01*
X79017881Y-48029431D01*
X78958157Y-47730428D01*
X78889849Y-47404578D01*
X78817848Y-47074361D01*
X78747048Y-46762257D01*
X78682338Y-46490745D01*
X78633448Y-46300025D01*
X78601074Y-46216911D01*
X78545123Y-46180914D01*
X78435560Y-46173026D01*
X78432776Y-46173025D01*
X79198121Y-46173025D01*
X79210571Y-46342358D01*
X79227276Y-46530768D01*
X79252844Y-46770403D01*
X79285287Y-47046588D01*
X79322615Y-47344647D01*
X79362836Y-47649906D01*
X79403961Y-47947689D01*
X79444000Y-48223322D01*
X79480963Y-48462128D01*
X79512861Y-48649433D01*
X79537702Y-48770563D01*
X79542090Y-48787108D01*
X79586030Y-48840177D01*
X79688602Y-48860411D01*
X79726049Y-48861192D01*
X79888737Y-48861192D01*
X79973132Y-48490775D01*
X80023684Y-48262025D01*
X80077719Y-48006774D01*
X80124200Y-47777238D01*
X80127461Y-47760525D01*
X80161952Y-47589176D01*
X80193055Y-47445453D01*
X80215571Y-47353021D01*
X80220452Y-47337192D01*
X80237278Y-47349945D01*
X80265767Y-47432147D01*
X80301856Y-47570052D01*
X80339318Y-47739358D01*
X80387761Y-47971942D01*
X80439453Y-48215493D01*
X80486612Y-48433520D01*
X80508641Y-48533108D01*
X80582154Y-48861192D01*
X80744385Y-48861192D01*
X81546133Y-48861192D01*
X81885989Y-48861192D01*
X81885989Y-48822801D01*
X82139989Y-48822801D01*
X82177489Y-48847104D01*
X82270888Y-48860364D01*
X82304925Y-48861192D01*
X82469862Y-48861192D01*
X82527175Y-48533108D01*
X82584489Y-48205025D01*
X82865193Y-48192622D01*
X83000654Y-48187247D01*
X83089768Y-48195136D01*
X83144644Y-48230749D01*
X83177392Y-48308547D01*
X83200122Y-48442990D01*
X83221228Y-48617775D01*
X83250411Y-48861192D01*
X83414866Y-48861192D01*
X83534101Y-48848608D01*
X83578674Y-48809307D01*
X83579322Y-48801634D01*
X83571106Y-48728998D01*
X83548398Y-48588564D01*
X83514104Y-48395394D01*
X83471131Y-48164548D01*
X83422387Y-47911090D01*
X83370778Y-47650079D01*
X83319213Y-47396578D01*
X83270596Y-47165648D01*
X83227837Y-46972351D01*
X83218315Y-46931296D01*
X83154785Y-46659881D01*
X83106805Y-46459800D01*
X83069426Y-46320242D01*
X83037700Y-46230393D01*
X83006676Y-46179440D01*
X82971407Y-46156571D01*
X82933973Y-46151858D01*
X83494655Y-46151858D01*
X83494655Y-46532858D01*
X83960322Y-46532858D01*
X83960322Y-48861192D01*
X84298989Y-48861192D01*
X84298989Y-46532858D01*
X84764655Y-46532858D01*
X84764655Y-46151858D01*
X83494655Y-46151858D01*
X82933973Y-46151858D01*
X82926943Y-46150973D01*
X82868335Y-46151833D01*
X82861563Y-46151858D01*
X82697401Y-46151858D01*
X82547847Y-46776275D01*
X82503144Y-46970062D01*
X82451759Y-47204433D01*
X82396533Y-47465129D01*
X82340309Y-47737895D01*
X82285927Y-48008473D01*
X82236229Y-48262605D01*
X82194055Y-48486036D01*
X82162248Y-48664507D01*
X82143649Y-48783762D01*
X82139989Y-48822801D01*
X81885989Y-48822801D01*
X81885989Y-46146747D01*
X81568489Y-46173025D01*
X81557311Y-47517108D01*
X81546133Y-48861192D01*
X80744385Y-48861192D01*
X80864704Y-48847969D01*
X80921778Y-48803481D01*
X80928128Y-48787108D01*
X80954205Y-48672026D01*
X80987274Y-48487583D01*
X81025327Y-48248605D01*
X81066358Y-47969917D01*
X81108356Y-47666347D01*
X81149316Y-47352719D01*
X81187229Y-47043860D01*
X81220087Y-46754596D01*
X81245882Y-46499752D01*
X81259219Y-46342358D01*
X81271856Y-46173025D01*
X81102672Y-46173025D01*
X80993805Y-46178054D01*
X80943490Y-46207427D01*
X80925661Y-46282574D01*
X80922456Y-46321192D01*
X80908415Y-46491072D01*
X80888517Y-46707094D01*
X80864642Y-46951307D01*
X80838666Y-47205762D01*
X80812468Y-47452509D01*
X80787927Y-47673599D01*
X80766921Y-47851081D01*
X80751328Y-47967006D01*
X80748316Y-47985277D01*
X80736280Y-48038277D01*
X80722976Y-48055789D01*
X80706068Y-48029878D01*
X80683220Y-47952607D01*
X80652096Y-47816043D01*
X80610357Y-47612248D01*
X80555669Y-47333288D01*
X80554373Y-47326608D01*
X80392166Y-46490525D01*
X80232274Y-46490525D01*
X80124618Y-46498477D01*
X80072664Y-46534410D01*
X80049814Y-46606942D01*
X80034532Y-46686306D01*
X80006502Y-46832378D01*
X79968876Y-47028705D01*
X79924809Y-47258837D01*
X79889914Y-47441184D01*
X79838601Y-47702868D01*
X79798976Y-47888129D01*
X79769023Y-48004096D01*
X79746725Y-48057895D01*
X79730067Y-48056654D01*
X79722274Y-48033851D01*
X79709097Y-47954355D01*
X79690188Y-47807481D01*
X79667308Y-47610183D01*
X79642216Y-47379417D01*
X79616674Y-47132138D01*
X79592442Y-46885302D01*
X79571281Y-46655864D01*
X79554951Y-46460779D01*
X79546639Y-46342358D01*
X79535645Y-46234010D01*
X79503012Y-46185831D01*
X79422907Y-46173431D01*
X79367305Y-46173025D01*
X79198121Y-46173025D01*
X78432776Y-46173025D01*
X78266489Y-46173025D01*
X78169483Y-46554025D01*
X78135028Y-46699035D01*
X78088141Y-46910066D01*
X78032355Y-47169987D01*
X77971202Y-47461672D01*
X77908212Y-47767991D01*
X77846919Y-48071816D01*
X77790853Y-48356019D01*
X77743547Y-48603471D01*
X77717264Y-48747181D01*
X77708878Y-48821304D01*
X77483322Y-48821304D01*
X77483322Y-46151858D01*
X77339693Y-46151858D01*
X77276135Y-46154653D01*
X77227520Y-46171990D01*
X77183543Y-46217299D01*
X77133901Y-46304007D01*
X77068290Y-46445543D01*
X77006758Y-46585775D01*
X76908977Y-46815103D01*
X76805175Y-47066963D01*
X76711690Y-47301413D01*
X76674137Y-47399055D01*
X76530822Y-47778419D01*
X76519324Y-46965139D01*
X76507827Y-46151858D01*
X76170989Y-46151858D01*
X75366655Y-46151858D01*
X75366655Y-45347352D01*
X85600739Y-45358022D01*
X85600739Y-45358022D01*
G37*
X85600739Y-45358022D02*
X95834822Y-45368692D01*
X95845804Y-47453608D01*
X95856786Y-49538525D01*
X75366655Y-49538525D01*
X75366655Y-48866374D01*
X85525459Y-48866374D01*
X85679021Y-48853199D01*
X85832584Y-48840025D01*
X86012501Y-48332025D01*
X86098215Y-48093925D01*
X86190889Y-47842863D01*
X86278152Y-47612040D01*
X86335787Y-47464192D01*
X86479155Y-47104358D01*
X86490597Y-47982775D01*
X86502040Y-48861192D01*
X86838989Y-48861192D01*
X86838989Y-46151858D01*
X87262322Y-46151858D01*
X87262322Y-48861192D01*
X87600989Y-48861192D01*
X87600989Y-48480192D01*
X88489989Y-48480192D01*
X88489989Y-48861192D01*
X89549511Y-48861192D01*
X89538431Y-47528776D01*
X89860680Y-47528776D01*
X89882848Y-47851990D01*
X89954760Y-48203825D01*
X90066291Y-48481705D01*
X90218289Y-48686941D01*
X90411602Y-48820845D01*
X90537427Y-48864964D01*
X90657077Y-48878918D01*
X90821092Y-48879113D01*
X90992758Y-48867439D01*
X91103610Y-48850608D01*
X91453512Y-48850608D01*
X91490979Y-48857252D01*
X91584746Y-48860931D01*
X91621849Y-48861192D01*
X91735577Y-48852715D01*
X91791855Y-48818544D01*
X91812696Y-48765942D01*
X91831081Y-48670165D01*
X91853726Y-48529215D01*
X91866863Y-48437858D01*
X91898708Y-48205025D01*
X92182730Y-48192537D01*
X92319180Y-48186831D01*
X92408548Y-48193847D01*
X92463506Y-48228122D01*
X92496724Y-48304194D01*
X92520872Y-48436601D01*
X92544125Y-48607192D01*
X92575899Y-48840025D01*
X92748648Y-48852710D01*
X92921397Y-48865396D01*
X92920645Y-48861192D01*
X93092812Y-48861192D01*
X93442989Y-48861192D01*
X93445428Y-48130942D01*
X93447976Y-47877181D01*
X93453469Y-47640769D01*
X93461250Y-47439901D01*
X93470664Y-47292770D01*
X93477873Y-47231501D01*
X93490361Y-47173896D01*
X93504219Y-47152419D01*
X93522799Y-47175537D01*
X93549451Y-47251718D01*
X93587524Y-47389428D01*
X93640370Y-47597134D01*
X93670518Y-47718335D01*
X93727397Y-47947460D01*
X93778233Y-48151681D01*
X93819036Y-48315005D01*
X93845813Y-48421440D01*
X93853358Y-48450854D01*
X93893201Y-48505344D01*
X93985450Y-48516070D01*
X94006355Y-48514354D01*
X94091036Y-48496779D01*
X94141260Y-48449506D01*
X94178350Y-48348704D01*
X94188455Y-48310858D01*
X94217964Y-48196822D01*
X94262796Y-48023545D01*
X94317071Y-47813756D01*
X94374909Y-47590185D01*
X94380124Y-47570025D01*
X94522489Y-47019692D01*
X94548669Y-47506525D01*
X94560620Y-47761884D01*
X94571005Y-48043859D01*
X94578309Y-48308568D01*
X94580419Y-48427275D01*
X94585989Y-48861192D01*
X94930772Y-48861192D01*
X94907209Y-48384942D01*
X94896801Y-48160487D01*
X94885014Y-47883729D01*
X94873172Y-47586989D01*
X94862598Y-47302587D01*
X94860838Y-47252525D01*
X94851087Y-47004728D01*
X94839726Y-46767928D01*
X94827938Y-46563786D01*
X94816902Y-46413958D01*
X94812964Y-46374108D01*
X94795811Y-46245129D01*
X94771403Y-46179197D01*
X94723630Y-46155158D01*
X94643703Y-46151858D01*
X94586396Y-46152975D01*
X94540391Y-46162942D01*
X94500928Y-46191686D01*
X94463247Y-46249134D01*
X94422589Y-46345211D01*
X94374193Y-46489845D01*
X94313300Y-46692962D01*
X94235150Y-46964487D01*
X94207269Y-47062025D01*
X94140290Y-47288760D01*
X94079866Y-47479095D01*
X94030015Y-47621497D01*
X93994756Y-47704435D01*
X93978619Y-47718192D01*
X93959021Y-47653883D01*
X93922882Y-47526514D01*
X93875447Y-47354842D01*
X93824714Y-47167858D01*
X93763015Y-46943646D01*
X93698837Y-46718949D01*
X93640845Y-46523693D01*
X93606480Y-46414138D01*
X93519219Y-46147250D01*
X93364687Y-46160138D01*
X93210155Y-46173025D01*
X93183076Y-46554025D01*
X93173542Y-46711921D01*
X93162375Y-46935423D01*
X93150404Y-47205504D01*
X93138462Y-47503138D01*
X93127377Y-47809300D01*
X93124404Y-47898108D01*
X93092812Y-48861192D01*
X92920645Y-48861192D01*
X92820674Y-48302377D01*
X92778885Y-48079184D01*
X92725753Y-47810983D01*
X92665234Y-47516265D01*
X92601283Y-47213519D01*
X92537852Y-46921236D01*
X92478898Y-46657906D01*
X92428375Y-46442018D01*
X92392420Y-46300025D01*
X92358148Y-46215810D01*
X92297075Y-46175845D01*
X92188726Y-46160397D01*
X92019600Y-46147769D01*
X91861430Y-46816564D01*
X91820697Y-46995193D01*
X91772308Y-47217529D01*
X91719130Y-47469276D01*
X91664031Y-47736139D01*
X91609878Y-48003822D01*
X91559536Y-48258029D01*
X91515875Y-48484464D01*
X91481759Y-48668832D01*
X91460057Y-48796836D01*
X91453512Y-48850608D01*
X91103610Y-48850608D01*
X91135363Y-48845787D01*
X91184792Y-48831620D01*
X91201324Y-48810609D01*
X91214481Y-48756377D01*
X91224600Y-48661022D01*
X91232022Y-48516642D01*
X91237086Y-48315334D01*
X91240131Y-48049196D01*
X91241496Y-47710325D01*
X91241655Y-47507287D01*
X91241655Y-46204775D01*
X91109363Y-46178317D01*
X90790719Y-46144769D01*
X90517951Y-46180005D01*
X90293012Y-46283280D01*
X90117858Y-46453850D01*
X90038676Y-46585719D01*
X89940273Y-46858035D01*
X89879859Y-47181181D01*
X89860680Y-47528776D01*
X89538431Y-47528776D01*
X89538333Y-47517108D01*
X89527155Y-46173025D01*
X89029739Y-46161098D01*
X88532322Y-46149171D01*
X88532322Y-46532858D01*
X89167322Y-46532858D01*
X89167322Y-47248656D01*
X88595822Y-47273692D01*
X88582804Y-47453608D01*
X88569787Y-47633525D01*
X89167322Y-47633525D01*
X89167322Y-48480192D01*
X88489989Y-48480192D01*
X87600989Y-48480192D01*
X87600989Y-46151858D01*
X87262322Y-46151858D01*
X86838989Y-46151858D01*
X86694791Y-46151858D01*
X86632268Y-46154334D01*
X86584497Y-46170563D01*
X86541727Y-46213745D01*
X86494205Y-46297079D01*
X86432179Y-46433765D01*
X86358581Y-46606942D01*
X86261744Y-46839401D01*
X86158277Y-47092548D01*
X86063670Y-47328295D01*
X86018580Y-47443025D01*
X85870590Y-47824025D01*
X85865322Y-46146747D01*
X85547822Y-46173025D01*
X85536640Y-47519699D01*
X85525459Y-48866374D01*
X75366655Y-48866374D01*
X75366655Y-46151858D01*
X76170989Y-46151858D01*
X76170989Y-48861192D01*
X76315269Y-48861192D01*
X76394107Y-48856655D01*
X76445958Y-48830935D01*
X76486844Y-48765864D01*
X76532785Y-48643274D01*
X76548588Y-48596608D01*
X76595644Y-48462384D01*
X76665305Y-48270805D01*
X76749603Y-48043468D01*
X76840566Y-47801970D01*
X76880558Y-47697025D01*
X77123489Y-47062025D01*
X77134914Y-47961608D01*
X77146339Y-48861192D01*
X77483322Y-48861192D01*
X77483322Y-48821304D01*
X77708878Y-48821304D01*
X77733035Y-48853353D01*
X77810488Y-48857240D01*
X77875110Y-48853014D01*
X78054078Y-48840025D01*
X78085852Y-48607192D01*
X78112351Y-48414520D01*
X78136997Y-48290720D01*
X78172474Y-48221256D01*
X78231468Y-48191589D01*
X78326665Y-48187183D01*
X78447690Y-48192537D01*
X78732155Y-48205025D01*
X78782415Y-48522525D01*
X78806714Y-48675269D01*
X78825330Y-48790868D01*
X78834838Y-48848089D01*
X78835332Y-48850608D01*
X78874676Y-48857341D01*
X78969239Y-48860981D01*
X79001741Y-48861192D01*
X79165493Y-48861192D01*
X79064129Y-48279108D01*
X79017881Y-48029431D01*
X78958157Y-47730428D01*
X78889849Y-47404578D01*
X78817848Y-47074361D01*
X78747048Y-46762257D01*
X78682338Y-46490745D01*
X78633448Y-46300025D01*
X78601074Y-46216911D01*
X78545123Y-46180914D01*
X78435560Y-46173026D01*
X78432776Y-46173025D01*
X79198121Y-46173025D01*
X79210571Y-46342358D01*
X79227276Y-46530768D01*
X79252844Y-46770403D01*
X79285287Y-47046588D01*
X79322615Y-47344647D01*
X79362836Y-47649906D01*
X79403961Y-47947689D01*
X79444000Y-48223322D01*
X79480963Y-48462128D01*
X79512861Y-48649433D01*
X79537702Y-48770563D01*
X79542090Y-48787108D01*
X79586030Y-48840177D01*
X79688602Y-48860411D01*
X79726049Y-48861192D01*
X79888737Y-48861192D01*
X79973132Y-48490775D01*
X80023684Y-48262025D01*
X80077719Y-48006774D01*
X80124200Y-47777238D01*
X80127461Y-47760525D01*
X80161952Y-47589176D01*
X80193055Y-47445453D01*
X80215571Y-47353021D01*
X80220452Y-47337192D01*
X80237278Y-47349945D01*
X80265767Y-47432147D01*
X80301856Y-47570052D01*
X80339318Y-47739358D01*
X80387761Y-47971942D01*
X80439453Y-48215493D01*
X80486612Y-48433520D01*
X80508641Y-48533108D01*
X80582154Y-48861192D01*
X80744385Y-48861192D01*
X81546133Y-48861192D01*
X81885989Y-48861192D01*
X81885989Y-48822801D01*
X82139989Y-48822801D01*
X82177489Y-48847104D01*
X82270888Y-48860364D01*
X82304925Y-48861192D01*
X82469862Y-48861192D01*
X82527175Y-48533108D01*
X82584489Y-48205025D01*
X82865193Y-48192622D01*
X83000654Y-48187247D01*
X83089768Y-48195136D01*
X83144644Y-48230749D01*
X83177392Y-48308547D01*
X83200122Y-48442990D01*
X83221228Y-48617775D01*
X83250411Y-48861192D01*
X83414866Y-48861192D01*
X83534101Y-48848608D01*
X83578674Y-48809307D01*
X83579322Y-48801634D01*
X83571106Y-48728998D01*
X83548398Y-48588564D01*
X83514104Y-48395394D01*
X83471131Y-48164548D01*
X83422387Y-47911090D01*
X83370778Y-47650079D01*
X83319213Y-47396578D01*
X83270596Y-47165648D01*
X83227837Y-46972351D01*
X83218315Y-46931296D01*
X83154785Y-46659881D01*
X83106805Y-46459800D01*
X83069426Y-46320242D01*
X83037700Y-46230393D01*
X83006676Y-46179440D01*
X82971407Y-46156571D01*
X82933973Y-46151858D01*
X83494655Y-46151858D01*
X83494655Y-46532858D01*
X83960322Y-46532858D01*
X83960322Y-48861192D01*
X84298989Y-48861192D01*
X84298989Y-46532858D01*
X84764655Y-46532858D01*
X84764655Y-46151858D01*
X83494655Y-46151858D01*
X82933973Y-46151858D01*
X82926943Y-46150973D01*
X82868335Y-46151833D01*
X82861563Y-46151858D01*
X82697401Y-46151858D01*
X82547847Y-46776275D01*
X82503144Y-46970062D01*
X82451759Y-47204433D01*
X82396533Y-47465129D01*
X82340309Y-47737895D01*
X82285927Y-48008473D01*
X82236229Y-48262605D01*
X82194055Y-48486036D01*
X82162248Y-48664507D01*
X82143649Y-48783762D01*
X82139989Y-48822801D01*
X81885989Y-48822801D01*
X81885989Y-46146747D01*
X81568489Y-46173025D01*
X81557311Y-47517108D01*
X81546133Y-48861192D01*
X80744385Y-48861192D01*
X80864704Y-48847969D01*
X80921778Y-48803481D01*
X80928128Y-48787108D01*
X80954205Y-48672026D01*
X80987274Y-48487583D01*
X81025327Y-48248605D01*
X81066358Y-47969917D01*
X81108356Y-47666347D01*
X81149316Y-47352719D01*
X81187229Y-47043860D01*
X81220087Y-46754596D01*
X81245882Y-46499752D01*
X81259219Y-46342358D01*
X81271856Y-46173025D01*
X81102672Y-46173025D01*
X80993805Y-46178054D01*
X80943490Y-46207427D01*
X80925661Y-46282574D01*
X80922456Y-46321192D01*
X80908415Y-46491072D01*
X80888517Y-46707094D01*
X80864642Y-46951307D01*
X80838666Y-47205762D01*
X80812468Y-47452509D01*
X80787927Y-47673599D01*
X80766921Y-47851081D01*
X80751328Y-47967006D01*
X80748316Y-47985277D01*
X80736280Y-48038277D01*
X80722976Y-48055789D01*
X80706068Y-48029878D01*
X80683220Y-47952607D01*
X80652096Y-47816043D01*
X80610357Y-47612248D01*
X80555669Y-47333288D01*
X80554373Y-47326608D01*
X80392166Y-46490525D01*
X80232274Y-46490525D01*
X80124618Y-46498477D01*
X80072664Y-46534410D01*
X80049814Y-46606942D01*
X80034532Y-46686306D01*
X80006502Y-46832378D01*
X79968876Y-47028705D01*
X79924809Y-47258837D01*
X79889914Y-47441184D01*
X79838601Y-47702868D01*
X79798976Y-47888129D01*
X79769023Y-48004096D01*
X79746725Y-48057895D01*
X79730067Y-48056654D01*
X79722274Y-48033851D01*
X79709097Y-47954355D01*
X79690188Y-47807481D01*
X79667308Y-47610183D01*
X79642216Y-47379417D01*
X79616674Y-47132138D01*
X79592442Y-46885302D01*
X79571281Y-46655864D01*
X79554951Y-46460779D01*
X79546639Y-46342358D01*
X79535645Y-46234010D01*
X79503012Y-46185831D01*
X79422907Y-46173431D01*
X79367305Y-46173025D01*
X79198121Y-46173025D01*
X78432776Y-46173025D01*
X78266489Y-46173025D01*
X78169483Y-46554025D01*
X78135028Y-46699035D01*
X78088141Y-46910066D01*
X78032355Y-47169987D01*
X77971202Y-47461672D01*
X77908212Y-47767991D01*
X77846919Y-48071816D01*
X77790853Y-48356019D01*
X77743547Y-48603471D01*
X77717264Y-48747181D01*
X77708878Y-48821304D01*
X77483322Y-48821304D01*
X77483322Y-46151858D01*
X77339693Y-46151858D01*
X77276135Y-46154653D01*
X77227520Y-46171990D01*
X77183543Y-46217299D01*
X77133901Y-46304007D01*
X77068290Y-46445543D01*
X77006758Y-46585775D01*
X76908977Y-46815103D01*
X76805175Y-47066963D01*
X76711690Y-47301413D01*
X76674137Y-47399055D01*
X76530822Y-47778419D01*
X76519324Y-46965139D01*
X76507827Y-46151858D01*
X76170989Y-46151858D01*
X75366655Y-46151858D01*
X75366655Y-45347352D01*
X85600739Y-45358022D01*
G36*
X79285889Y-100225990D02*
G01*
X79637071Y-100281031D01*
X79982584Y-100380827D01*
X80349974Y-100532139D01*
X80488989Y-100598600D01*
X80679424Y-100695579D01*
X80830478Y-100783209D01*
X80963657Y-100877504D01*
X81100467Y-100994477D01*
X81262416Y-101150140D01*
X81356822Y-101244742D01*
X81625231Y-101531944D01*
X81828472Y-101787215D01*
X81957719Y-101989525D01*
X82190479Y-102488931D01*
X82342784Y-103005057D01*
X82415273Y-103530289D01*
X82408584Y-104057010D01*
X82323358Y-104577607D01*
X82160231Y-105084462D01*
X81919845Y-105569961D01*
X81620950Y-106003897D01*
X81305693Y-106340215D01*
X80928100Y-106643287D01*
X80507952Y-106900493D01*
X80065029Y-107099214D01*
X79750751Y-107197083D01*
X79466387Y-107252536D01*
X79144953Y-107288999D01*
X78818605Y-107304580D01*
X78519503Y-107297389D01*
X78352803Y-107279275D01*
X77824754Y-107155462D01*
X77328607Y-106958168D01*
X76871112Y-106693541D01*
X76459018Y-106367729D01*
X76099075Y-105986881D01*
X75798032Y-105557145D01*
X75562639Y-105084670D01*
X75403824Y-104593025D01*
X75336413Y-104203719D01*
X75310755Y-103785049D01*
X75320934Y-103521250D01*
X76107578Y-103521250D01*
X76107823Y-103979273D01*
X76192678Y-104437680D01*
X76362160Y-104897219D01*
X76405397Y-104987685D01*
X76651343Y-105393098D01*
X76954407Y-105741461D01*
X77306073Y-106029207D01*
X77697825Y-106252772D01*
X78121147Y-106408589D01*
X78567523Y-106493094D01*
X79028439Y-106502720D01*
X79495377Y-106433904D01*
X79714903Y-106373318D01*
X80142281Y-106193650D01*
X80532493Y-105942927D01*
X80876867Y-105629822D01*
X81166725Y-105263010D01*
X81393395Y-104851163D01*
X81492072Y-104596344D01*
X81543263Y-104429582D01*
X81576475Y-104281995D01*
X81595370Y-104126015D01*
X81603610Y-103934075D01*
X81605000Y-103746358D01*
X81602290Y-103509939D01*
X81592050Y-103331510D01*
X81570712Y-103184486D01*
X81534708Y-103042283D01*
X81493517Y-102915779D01*
X81293823Y-102452580D01*
X81034985Y-102049933D01*
X80716791Y-101707602D01*
X80339033Y-101425350D01*
X80011827Y-101250809D01*
X79688743Y-101121160D01*
X79385705Y-101042574D01*
X79063983Y-101006696D01*
X78859155Y-101002148D01*
X78377300Y-101043469D01*
X77921964Y-101162357D01*
X77500340Y-101354203D01*
X77119621Y-101614397D01*
X76787000Y-101938328D01*
X76509668Y-102321387D01*
X76360869Y-102603358D01*
X76191932Y-103062861D01*
X76107578Y-103521250D01*
X75320934Y-103521250D01*
X75326820Y-103368724D01*
X75384573Y-102986455D01*
X75405583Y-102899692D01*
X75584432Y-102379559D01*
X75832362Y-101900500D01*
X76143152Y-101468399D01*
X76510583Y-101089140D01*
X76928434Y-100768610D01*
X77390486Y-100512694D01*
X77890517Y-100327276D01*
X78202989Y-100252919D01*
X78345938Y-100234156D01*
X78542957Y-100219403D01*
X78763472Y-100210584D01*
X78901489Y-100208942D01*
X79285889Y-100225990D01*
X79285889Y-100225990D01*
G37*
X79285889Y-100225990D02*
X79637071Y-100281031D01*
X79982584Y-100380827D01*
X80349974Y-100532139D01*
X80488989Y-100598600D01*
X80679424Y-100695579D01*
X80830478Y-100783209D01*
X80963657Y-100877504D01*
X81100467Y-100994477D01*
X81262416Y-101150140D01*
X81356822Y-101244742D01*
X81625231Y-101531944D01*
X81828472Y-101787215D01*
X81957719Y-101989525D01*
X82190479Y-102488931D01*
X82342784Y-103005057D01*
X82415273Y-103530289D01*
X82408584Y-104057010D01*
X82323358Y-104577607D01*
X82160231Y-105084462D01*
X81919845Y-105569961D01*
X81620950Y-106003897D01*
X81305693Y-106340215D01*
X80928100Y-106643287D01*
X80507952Y-106900493D01*
X80065029Y-107099214D01*
X79750751Y-107197083D01*
X79466387Y-107252536D01*
X79144953Y-107288999D01*
X78818605Y-107304580D01*
X78519503Y-107297389D01*
X78352803Y-107279275D01*
X77824754Y-107155462D01*
X77328607Y-106958168D01*
X76871112Y-106693541D01*
X76459018Y-106367729D01*
X76099075Y-105986881D01*
X75798032Y-105557145D01*
X75562639Y-105084670D01*
X75403824Y-104593025D01*
X75336413Y-104203719D01*
X75310755Y-103785049D01*
X75320934Y-103521250D01*
X76107578Y-103521250D01*
X76107823Y-103979273D01*
X76192678Y-104437680D01*
X76362160Y-104897219D01*
X76405397Y-104987685D01*
X76651343Y-105393098D01*
X76954407Y-105741461D01*
X77306073Y-106029207D01*
X77697825Y-106252772D01*
X78121147Y-106408589D01*
X78567523Y-106493094D01*
X79028439Y-106502720D01*
X79495377Y-106433904D01*
X79714903Y-106373318D01*
X80142281Y-106193650D01*
X80532493Y-105942927D01*
X80876867Y-105629822D01*
X81166725Y-105263010D01*
X81393395Y-104851163D01*
X81492072Y-104596344D01*
X81543263Y-104429582D01*
X81576475Y-104281995D01*
X81595370Y-104126015D01*
X81603610Y-103934075D01*
X81605000Y-103746358D01*
X81602290Y-103509939D01*
X81592050Y-103331510D01*
X81570712Y-103184486D01*
X81534708Y-103042283D01*
X81493517Y-102915779D01*
X81293823Y-102452580D01*
X81034985Y-102049933D01*
X80716791Y-101707602D01*
X80339033Y-101425350D01*
X80011827Y-101250809D01*
X79688743Y-101121160D01*
X79385705Y-101042574D01*
X79063983Y-101006696D01*
X78859155Y-101002148D01*
X78377300Y-101043469D01*
X77921964Y-101162357D01*
X77500340Y-101354203D01*
X77119621Y-101614397D01*
X76787000Y-101938328D01*
X76509668Y-102321387D01*
X76360869Y-102603358D01*
X76191932Y-103062861D01*
X76107578Y-103521250D01*
X75320934Y-103521250D01*
X75326820Y-103368724D01*
X75384573Y-102986455D01*
X75405583Y-102899692D01*
X75584432Y-102379559D01*
X75832362Y-101900500D01*
X76143152Y-101468399D01*
X76510583Y-101089140D01*
X76928434Y-100768610D01*
X77390486Y-100512694D01*
X77890517Y-100327276D01*
X78202989Y-100252919D01*
X78345938Y-100234156D01*
X78542957Y-100219403D01*
X78763472Y-100210584D01*
X78901489Y-100208942D01*
X79285889Y-100225990D01*
G36*
X92237698Y-126454103D02*
G01*
X92514060Y-126485266D01*
X92575155Y-126497059D01*
X93103074Y-126652455D01*
X93592213Y-126880547D01*
X94036987Y-127176144D01*
X94431807Y-127534053D01*
X94771089Y-127949081D01*
X95049245Y-128416037D01*
X95260689Y-128929729D01*
X95289001Y-129019358D01*
X95337031Y-129187586D01*
X95369686Y-129333973D01*
X95389834Y-129482744D01*
X95400345Y-129658120D01*
X95404089Y-129884326D01*
X95404334Y-129993025D01*
X95402473Y-130245986D01*
X95394979Y-130438548D01*
X95378980Y-130594935D01*
X95351609Y-130739369D01*
X95309996Y-130896074D01*
X95289001Y-130966692D01*
X95089477Y-131488861D01*
X94824568Y-131962545D01*
X94499922Y-132383233D01*
X94121186Y-132746415D01*
X93694007Y-133047578D01*
X93224033Y-133282213D01*
X92716911Y-133445808D01*
X92178289Y-133533853D01*
X92064718Y-133542148D01*
X91851039Y-133548022D01*
X91629463Y-133543655D01*
X91442053Y-133530059D01*
X91413553Y-133526484D01*
X90880711Y-133411683D01*
X90379507Y-133221869D01*
X89916494Y-132962892D01*
X89498224Y-132640606D01*
X89131252Y-132260861D01*
X88822129Y-131829509D01*
X88577410Y-131352402D01*
X88404743Y-130839692D01*
X88344385Y-130506150D01*
X88316745Y-130127823D01*
X88318500Y-129993025D01*
X89112052Y-129993025D01*
X89152025Y-130471848D01*
X89268340Y-130922463D01*
X89455586Y-131338698D01*
X89708356Y-131714375D01*
X90021240Y-132043322D01*
X90388830Y-132319363D01*
X90805716Y-132536323D01*
X91266490Y-132688028D01*
X91516822Y-132738311D01*
X91676673Y-132749619D01*
X91889652Y-132745659D01*
X92126049Y-132728668D01*
X92356153Y-132700886D01*
X92550255Y-132664550D01*
X92573694Y-132658692D01*
X93006598Y-132503496D01*
X93402910Y-132277930D01*
X93755763Y-131990901D01*
X94058294Y-131651317D01*
X94303636Y-131268083D01*
X94484925Y-130850106D01*
X94595296Y-130406292D01*
X94628322Y-129993025D01*
X94587453Y-129529735D01*
X94469141Y-129086211D01*
X94279828Y-128670746D01*
X94025957Y-128291632D01*
X93713970Y-127957162D01*
X93350309Y-127675627D01*
X92941418Y-127455321D01*
X92550930Y-127319119D01*
X92287949Y-127271149D01*
X91978584Y-127248996D01*
X91656576Y-127252597D01*
X91355670Y-127281889D01*
X91160374Y-127321698D01*
X90710493Y-127485822D01*
X90304520Y-127717709D01*
X89948237Y-128009821D01*
X89647423Y-128354620D01*
X89407857Y-128744568D01*
X89235321Y-129172127D01*
X89135593Y-129629758D01*
X89112052Y-129993025D01*
X88318500Y-129993025D01*
X88321822Y-129738012D01*
X88359618Y-129370021D01*
X88404743Y-129146358D01*
X88580054Y-128626149D01*
X88826726Y-128146782D01*
X89139110Y-127713909D01*
X89511558Y-127333186D01*
X89938423Y-127010266D01*
X90414056Y-126750803D01*
X90932809Y-126560451D01*
X91008822Y-126539568D01*
X91273348Y-126488345D01*
X91586738Y-126456474D01*
X91918390Y-126444783D01*
X92237698Y-126454103D01*
X92237698Y-126454103D01*
G37*
X92237698Y-126454103D02*
X92514060Y-126485266D01*
X92575155Y-126497059D01*
X93103074Y-126652455D01*
X93592213Y-126880547D01*
X94036987Y-127176144D01*
X94431807Y-127534053D01*
X94771089Y-127949081D01*
X95049245Y-128416037D01*
X95260689Y-128929729D01*
X95289001Y-129019358D01*
X95337031Y-129187586D01*
X95369686Y-129333973D01*
X95389834Y-129482744D01*
X95400345Y-129658120D01*
X95404089Y-129884326D01*
X95404334Y-129993025D01*
X95402473Y-130245986D01*
X95394979Y-130438548D01*
X95378980Y-130594935D01*
X95351609Y-130739369D01*
X95309996Y-130896074D01*
X95289001Y-130966692D01*
X95089477Y-131488861D01*
X94824568Y-131962545D01*
X94499922Y-132383233D01*
X94121186Y-132746415D01*
X93694007Y-133047578D01*
X93224033Y-133282213D01*
X92716911Y-133445808D01*
X92178289Y-133533853D01*
X92064718Y-133542148D01*
X91851039Y-133548022D01*
X91629463Y-133543655D01*
X91442053Y-133530059D01*
X91413553Y-133526484D01*
X90880711Y-133411683D01*
X90379507Y-133221869D01*
X89916494Y-132962892D01*
X89498224Y-132640606D01*
X89131252Y-132260861D01*
X88822129Y-131829509D01*
X88577410Y-131352402D01*
X88404743Y-130839692D01*
X88344385Y-130506150D01*
X88316745Y-130127823D01*
X88318500Y-129993025D01*
X89112052Y-129993025D01*
X89152025Y-130471848D01*
X89268340Y-130922463D01*
X89455586Y-131338698D01*
X89708356Y-131714375D01*
X90021240Y-132043322D01*
X90388830Y-132319363D01*
X90805716Y-132536323D01*
X91266490Y-132688028D01*
X91516822Y-132738311D01*
X91676673Y-132749619D01*
X91889652Y-132745659D01*
X92126049Y-132728668D01*
X92356153Y-132700886D01*
X92550255Y-132664550D01*
X92573694Y-132658692D01*
X93006598Y-132503496D01*
X93402910Y-132277930D01*
X93755763Y-131990901D01*
X94058294Y-131651317D01*
X94303636Y-131268083D01*
X94484925Y-130850106D01*
X94595296Y-130406292D01*
X94628322Y-129993025D01*
X94587453Y-129529735D01*
X94469141Y-129086211D01*
X94279828Y-128670746D01*
X94025957Y-128291632D01*
X93713970Y-127957162D01*
X93350309Y-127675627D01*
X92941418Y-127455321D01*
X92550930Y-127319119D01*
X92287949Y-127271149D01*
X91978584Y-127248996D01*
X91656576Y-127252597D01*
X91355670Y-127281889D01*
X91160374Y-127321698D01*
X90710493Y-127485822D01*
X90304520Y-127717709D01*
X89948237Y-128009821D01*
X89647423Y-128354620D01*
X89407857Y-128744568D01*
X89235321Y-129172127D01*
X89135593Y-129629758D01*
X89112052Y-129993025D01*
X88318500Y-129993025D01*
X88321822Y-129738012D01*
X88359618Y-129370021D01*
X88404743Y-129146358D01*
X88580054Y-128626149D01*
X88826726Y-128146782D01*
X89139110Y-127713909D01*
X89511558Y-127333186D01*
X89938423Y-127010266D01*
X90414056Y-126750803D01*
X90932809Y-126560451D01*
X91008822Y-126539568D01*
X91273348Y-126488345D01*
X91586738Y-126456474D01*
X91918390Y-126444783D01*
X92237698Y-126454103D01*
G36*
X79209838Y-126453330D02*
G01*
X79741846Y-126546005D01*
X80159151Y-126677515D01*
X80627229Y-126899915D01*
X81057158Y-127192623D01*
X81441749Y-127547146D01*
X81773815Y-127954989D01*
X82046171Y-128407659D01*
X82251629Y-128896663D01*
X82355602Y-129273358D01*
X82386205Y-129481143D01*
X82403891Y-129743440D01*
X82408659Y-130031083D01*
X82400509Y-130314909D01*
X82379442Y-130565753D01*
X82355602Y-130712692D01*
X82204142Y-131222924D01*
X81981926Y-131700580D01*
X81696032Y-132138473D01*
X81353537Y-132529410D01*
X80961519Y-132866204D01*
X80527053Y-133141664D01*
X80057217Y-133348601D01*
X79648902Y-133462453D01*
X79432449Y-133498955D01*
X79184325Y-133527403D01*
X78933382Y-133545681D01*
X78708473Y-133551673D01*
X78541655Y-133543648D01*
X77980335Y-133439002D01*
X77463039Y-133262279D01*
X76988015Y-133012631D01*
X76553513Y-132689208D01*
X76314666Y-132462624D01*
X75955519Y-132036365D01*
X75675773Y-131580831D01*
X75475034Y-131095057D01*
X75352908Y-130578074D01*
X75309001Y-130028916D01*
X75308845Y-129993025D01*
X75317381Y-129872262D01*
X76115709Y-129872262D01*
X76119053Y-130195365D01*
X76148665Y-130497188D01*
X76187829Y-130688140D01*
X76352337Y-131138330D01*
X76585576Y-131545709D01*
X76880083Y-131904377D01*
X77228390Y-132208433D01*
X77623032Y-132451977D01*
X78056543Y-132629110D01*
X78521459Y-132733930D01*
X78808713Y-132759515D01*
X78934232Y-132756207D01*
X79105005Y-132741363D01*
X79274379Y-132719567D01*
X79741688Y-132607403D01*
X80172452Y-132421294D01*
X80560833Y-132166200D01*
X80900987Y-131847078D01*
X81187073Y-131468888D01*
X81413251Y-131036589D01*
X81489252Y-130839285D01*
X81541693Y-130677947D01*
X81575932Y-130537522D01*
X81595700Y-130391147D01*
X81604726Y-130211956D01*
X81606750Y-129993025D01*
X81604352Y-129759394D01*
X81594671Y-129583491D01*
X81573978Y-129438452D01*
X81538543Y-129297414D01*
X81489252Y-129146764D01*
X81287937Y-128686393D01*
X81025385Y-128282436D01*
X80705759Y-127938385D01*
X80333222Y-127657727D01*
X79911937Y-127443952D01*
X79446067Y-127300549D01*
X79241027Y-127262584D01*
X78781955Y-127234166D01*
X78332813Y-127284862D01*
X77901907Y-127409137D01*
X77497541Y-127601455D01*
X77128020Y-127856278D01*
X76801650Y-128168071D01*
X76526735Y-128531297D01*
X76311579Y-128940421D01*
X76187829Y-129297910D01*
X76138634Y-129561803D01*
X76115709Y-129872262D01*
X75317381Y-129872262D01*
X75347811Y-129441796D01*
X75464971Y-128922804D01*
X75660718Y-128435082D01*
X75935448Y-127977661D01*
X76289554Y-127549576D01*
X76314666Y-127523426D01*
X76723375Y-127159954D01*
X77171873Y-126868274D01*
X77652463Y-126650078D01*
X78157451Y-126507060D01*
X78679141Y-126440913D01*
X79209838Y-126453330D01*
X79209838Y-126453330D01*
G37*
X79209838Y-126453330D02*
X79741846Y-126546005D01*
X80159151Y-126677515D01*
X80627229Y-126899915D01*
X81057158Y-127192623D01*
X81441749Y-127547146D01*
X81773815Y-127954989D01*
X82046171Y-128407659D01*
X82251629Y-128896663D01*
X82355602Y-129273358D01*
X82386205Y-129481143D01*
X82403891Y-129743440D01*
X82408659Y-130031083D01*
X82400509Y-130314909D01*
X82379442Y-130565753D01*
X82355602Y-130712692D01*
X82204142Y-131222924D01*
X81981926Y-131700580D01*
X81696032Y-132138473D01*
X81353537Y-132529410D01*
X80961519Y-132866204D01*
X80527053Y-133141664D01*
X80057217Y-133348601D01*
X79648902Y-133462453D01*
X79432449Y-133498955D01*
X79184325Y-133527403D01*
X78933382Y-133545681D01*
X78708473Y-133551673D01*
X78541655Y-133543648D01*
X77980335Y-133439002D01*
X77463039Y-133262279D01*
X76988015Y-133012631D01*
X76553513Y-132689208D01*
X76314666Y-132462624D01*
X75955519Y-132036365D01*
X75675773Y-131580831D01*
X75475034Y-131095057D01*
X75352908Y-130578074D01*
X75309001Y-130028916D01*
X75308845Y-129993025D01*
X75317381Y-129872262D01*
X76115709Y-129872262D01*
X76119053Y-130195365D01*
X76148665Y-130497188D01*
X76187829Y-130688140D01*
X76352337Y-131138330D01*
X76585576Y-131545709D01*
X76880083Y-131904377D01*
X77228390Y-132208433D01*
X77623032Y-132451977D01*
X78056543Y-132629110D01*
X78521459Y-132733930D01*
X78808713Y-132759515D01*
X78934232Y-132756207D01*
X79105005Y-132741363D01*
X79274379Y-132719567D01*
X79741688Y-132607403D01*
X80172452Y-132421294D01*
X80560833Y-132166200D01*
X80900987Y-131847078D01*
X81187073Y-131468888D01*
X81413251Y-131036589D01*
X81489252Y-130839285D01*
X81541693Y-130677947D01*
X81575932Y-130537522D01*
X81595700Y-130391147D01*
X81604726Y-130211956D01*
X81606750Y-129993025D01*
X81604352Y-129759394D01*
X81594671Y-129583491D01*
X81573978Y-129438452D01*
X81538543Y-129297414D01*
X81489252Y-129146764D01*
X81287937Y-128686393D01*
X81025385Y-128282436D01*
X80705759Y-127938385D01*
X80333222Y-127657727D01*
X79911937Y-127443952D01*
X79446067Y-127300549D01*
X79241027Y-127262584D01*
X78781955Y-127234166D01*
X78332813Y-127284862D01*
X77901907Y-127409137D01*
X77497541Y-127601455D01*
X77128020Y-127856278D01*
X76801650Y-128168071D01*
X76526735Y-128531297D01*
X76311579Y-128940421D01*
X76187829Y-129297910D01*
X76138634Y-129561803D01*
X76115709Y-129872262D01*
X75317381Y-129872262D01*
X75347811Y-129441796D01*
X75464971Y-128922804D01*
X75660718Y-128435082D01*
X75935448Y-127977661D01*
X76289554Y-127549576D01*
X76314666Y-127523426D01*
X76723375Y-127159954D01*
X77171873Y-126868274D01*
X77652463Y-126650078D01*
X78157451Y-126507060D01*
X78679141Y-126440913D01*
X79209838Y-126453330D01*
G36*
X92056635Y-138412058D02*
G01*
X92449932Y-138455900D01*
X92805028Y-138535294D01*
X93157648Y-138659840D01*
X93421822Y-138778874D01*
X93893316Y-139047633D01*
X94299640Y-139368669D01*
X94645987Y-139747173D01*
X94937552Y-140188332D01*
X95051468Y-140407025D01*
X95192400Y-140717193D01*
X95292091Y-140989617D01*
X95356740Y-141252052D01*
X95392548Y-141532255D01*
X95405716Y-141857983D01*
X95406097Y-141994525D01*
X95402711Y-142247692D01*
X95393048Y-142441709D01*
X95373993Y-142602034D01*
X95342433Y-142754125D01*
X95295255Y-142923439D01*
X95290596Y-142938874D01*
X95088393Y-143468177D01*
X94819445Y-143946494D01*
X94486858Y-144370691D01*
X94093737Y-144737629D01*
X93643187Y-145044174D01*
X93138312Y-145287189D01*
X92871489Y-145382298D01*
X92623768Y-145440134D01*
X92319406Y-145478960D01*
X91984398Y-145498195D01*
X91644737Y-145497261D01*
X91326420Y-145475578D01*
X91055440Y-145432566D01*
X91017936Y-145423597D01*
X90500599Y-145250708D01*
X90022937Y-145007594D01*
X89591023Y-144700641D01*
X89210929Y-144336237D01*
X88888726Y-143920770D01*
X88630487Y-143460628D01*
X88442283Y-142962199D01*
X88362050Y-142629525D01*
X88312615Y-142180583D01*
X88318241Y-141952192D01*
X89113009Y-141952192D01*
X89146313Y-142431528D01*
X89252006Y-142869471D01*
X89432892Y-143272859D01*
X89691773Y-143648528D01*
X89904193Y-143882080D01*
X90286563Y-144211612D01*
X90692430Y-144459948D01*
X91120818Y-144626809D01*
X91570750Y-144711914D01*
X92041252Y-144714985D01*
X92531345Y-144635741D01*
X92532822Y-144635384D01*
X92976875Y-144485695D01*
X93384530Y-144263775D01*
X93747826Y-143977143D01*
X94058800Y-143633316D01*
X94309490Y-143239812D01*
X94491933Y-142804150D01*
X94500271Y-142777692D01*
X94578831Y-142431119D01*
X94615707Y-142053715D01*
X94609057Y-141681503D01*
X94570286Y-141407547D01*
X94437611Y-140974193D01*
X94234087Y-140565248D01*
X93969229Y-140193046D01*
X93652554Y-139869921D01*
X93293581Y-139608206D01*
X93101944Y-139504587D01*
X92639468Y-139325932D01*
X92171680Y-139229234D01*
X91705871Y-139213254D01*
X91249332Y-139276756D01*
X90809355Y-139418502D01*
X90393229Y-139637255D01*
X90008248Y-139931778D01*
X89884108Y-140050611D01*
X89581218Y-140415524D01*
X89351955Y-140820785D01*
X89198164Y-141261840D01*
X89121693Y-141734135D01*
X89113009Y-141952192D01*
X88318241Y-141952192D01*
X88324437Y-141700717D01*
X88394816Y-141214483D01*
X88521053Y-140746435D01*
X88589212Y-140563319D01*
X88814831Y-140117539D01*
X89109028Y-139710009D01*
X89462082Y-139346759D01*
X89864276Y-139033818D01*
X90305889Y-138777217D01*
X90777203Y-138582987D01*
X91268498Y-138457155D01*
X91770056Y-138405754D01*
X92056635Y-138412058D01*
X92056635Y-138412058D01*
G37*
X92056635Y-138412058D02*
X92449932Y-138455900D01*
X92805028Y-138535294D01*
X93157648Y-138659840D01*
X93421822Y-138778874D01*
X93893316Y-139047633D01*
X94299640Y-139368669D01*
X94645987Y-139747173D01*
X94937552Y-140188332D01*
X95051468Y-140407025D01*
X95192400Y-140717193D01*
X95292091Y-140989617D01*
X95356740Y-141252052D01*
X95392548Y-141532255D01*
X95405716Y-141857983D01*
X95406097Y-141994525D01*
X95402711Y-142247692D01*
X95393048Y-142441709D01*
X95373993Y-142602034D01*
X95342433Y-142754125D01*
X95295255Y-142923439D01*
X95290596Y-142938874D01*
X95088393Y-143468177D01*
X94819445Y-143946494D01*
X94486858Y-144370691D01*
X94093737Y-144737629D01*
X93643187Y-145044174D01*
X93138312Y-145287189D01*
X92871489Y-145382298D01*
X92623768Y-145440134D01*
X92319406Y-145478960D01*
X91984398Y-145498195D01*
X91644737Y-145497261D01*
X91326420Y-145475578D01*
X91055440Y-145432566D01*
X91017936Y-145423597D01*
X90500599Y-145250708D01*
X90022937Y-145007594D01*
X89591023Y-144700641D01*
X89210929Y-144336237D01*
X88888726Y-143920770D01*
X88630487Y-143460628D01*
X88442283Y-142962199D01*
X88362050Y-142629525D01*
X88312615Y-142180583D01*
X88318241Y-141952192D01*
X89113009Y-141952192D01*
X89146313Y-142431528D01*
X89252006Y-142869471D01*
X89432892Y-143272859D01*
X89691773Y-143648528D01*
X89904193Y-143882080D01*
X90286563Y-144211612D01*
X90692430Y-144459948D01*
X91120818Y-144626809D01*
X91570750Y-144711914D01*
X92041252Y-144714985D01*
X92531345Y-144635741D01*
X92532822Y-144635384D01*
X92976875Y-144485695D01*
X93384530Y-144263775D01*
X93747826Y-143977143D01*
X94058800Y-143633316D01*
X94309490Y-143239812D01*
X94491933Y-142804150D01*
X94500271Y-142777692D01*
X94578831Y-142431119D01*
X94615707Y-142053715D01*
X94609057Y-141681503D01*
X94570286Y-141407547D01*
X94437611Y-140974193D01*
X94234087Y-140565248D01*
X93969229Y-140193046D01*
X93652554Y-139869921D01*
X93293581Y-139608206D01*
X93101944Y-139504587D01*
X92639468Y-139325932D01*
X92171680Y-139229234D01*
X91705871Y-139213254D01*
X91249332Y-139276756D01*
X90809355Y-139418502D01*
X90393229Y-139637255D01*
X90008248Y-139931778D01*
X89884108Y-140050611D01*
X89581218Y-140415524D01*
X89351955Y-140820785D01*
X89198164Y-141261840D01*
X89121693Y-141734135D01*
X89113009Y-141952192D01*
X88318241Y-141952192D01*
X88324437Y-141700717D01*
X88394816Y-141214483D01*
X88521053Y-140746435D01*
X88589212Y-140563319D01*
X88814831Y-140117539D01*
X89109028Y-139710009D01*
X89462082Y-139346759D01*
X89864276Y-139033818D01*
X90305889Y-138777217D01*
X90777203Y-138582987D01*
X91268498Y-138457155D01*
X91770056Y-138405754D01*
X92056635Y-138412058D01*
G36*
X79125298Y-138426090D02*
G01*
X79516836Y-138469518D01*
X79832822Y-138540878D01*
X80354747Y-138739660D01*
X80829046Y-139005724D01*
X81251125Y-139333441D01*
X81616389Y-139717176D01*
X81920246Y-140151299D01*
X82158101Y-140630176D01*
X82325360Y-141148177D01*
X82417429Y-141699669D01*
X82418455Y-141710822D01*
X82424839Y-142035829D01*
X82393651Y-142400030D01*
X82329300Y-142769089D01*
X82240713Y-143095192D01*
X82101501Y-143452863D01*
X81928606Y-143775603D01*
X81708348Y-144084741D01*
X81427047Y-144401605D01*
X81356822Y-144473252D01*
X81162124Y-144663983D01*
X81001691Y-144806985D01*
X80854389Y-144918553D01*
X80699083Y-145014982D01*
X80552489Y-145093393D01*
X80254168Y-145238351D01*
X79996618Y-145343056D01*
X79753129Y-145414193D01*
X79496991Y-145458447D01*
X79201498Y-145482503D01*
X78964989Y-145490722D01*
X78624094Y-145492928D01*
X78355532Y-145481773D01*
X78147937Y-145456655D01*
X78086798Y-145444276D01*
X77572466Y-145284407D01*
X77093862Y-145051370D01*
X76657376Y-144751420D01*
X76269396Y-144390808D01*
X75936312Y-143975789D01*
X75664512Y-143512615D01*
X75460385Y-143007541D01*
X75405583Y-142820025D01*
X75338979Y-142461757D01*
X75311465Y-142061074D01*
X75311880Y-142046480D01*
X76100688Y-142046480D01*
X76150889Y-142492756D01*
X76273719Y-142919929D01*
X76463195Y-143320166D01*
X76713333Y-143685631D01*
X77018149Y-144008489D01*
X77371660Y-144280906D01*
X77767882Y-144495047D01*
X78200830Y-144643077D01*
X78505938Y-144701039D01*
X78931238Y-144719498D01*
X79377674Y-144669392D01*
X79536489Y-144635384D01*
X79977583Y-144486180D01*
X80385107Y-144263435D01*
X80749417Y-143974822D01*
X81060871Y-143628017D01*
X81309826Y-143230692D01*
X81315426Y-143219663D01*
X81449544Y-142926768D01*
X81537815Y-142658601D01*
X81587961Y-142382358D01*
X81607704Y-142065234D01*
X81608805Y-141973358D01*
X81576476Y-141494947D01*
X81472991Y-141058506D01*
X81294963Y-140655892D01*
X81039001Y-140278957D01*
X80789347Y-140003741D01*
X80428238Y-139699840D01*
X80040703Y-139470817D01*
X79634425Y-139314060D01*
X79217087Y-139226954D01*
X78796373Y-139206886D01*
X78379966Y-139251243D01*
X77975548Y-139357411D01*
X77590804Y-139522777D01*
X77233416Y-139744727D01*
X76911067Y-140020648D01*
X76631442Y-140347926D01*
X76402222Y-140723948D01*
X76231091Y-141146100D01*
X76129101Y-141588937D01*
X76100688Y-142046480D01*
X75311880Y-142046480D01*
X75323145Y-141650718D01*
X75374124Y-141263431D01*
X75400201Y-141143759D01*
X75570590Y-140616839D01*
X75811695Y-140133027D01*
X76118632Y-139697316D01*
X76486516Y-139314697D01*
X76910463Y-138990162D01*
X77385588Y-138728702D01*
X77907005Y-138535308D01*
X77970155Y-138517538D01*
X78320984Y-138449712D01*
X78716357Y-138419358D01*
X79125298Y-138426090D01*
X79125298Y-138426090D01*
G37*
X79125298Y-138426090D02*
X79516836Y-138469518D01*
X79832822Y-138540878D01*
X80354747Y-138739660D01*
X80829046Y-139005724D01*
X81251125Y-139333441D01*
X81616389Y-139717176D01*
X81920246Y-140151299D01*
X82158101Y-140630176D01*
X82325360Y-141148177D01*
X82417429Y-141699669D01*
X82418455Y-141710822D01*
X82424839Y-142035829D01*
X82393651Y-142400030D01*
X82329300Y-142769089D01*
X82240713Y-143095192D01*
X82101501Y-143452863D01*
X81928606Y-143775603D01*
X81708348Y-144084741D01*
X81427047Y-144401605D01*
X81356822Y-144473252D01*
X81162124Y-144663983D01*
X81001691Y-144806985D01*
X80854389Y-144918553D01*
X80699083Y-145014982D01*
X80552489Y-145093393D01*
X80254168Y-145238351D01*
X79996618Y-145343056D01*
X79753129Y-145414193D01*
X79496991Y-145458447D01*
X79201498Y-145482503D01*
X78964989Y-145490722D01*
X78624094Y-145492928D01*
X78355532Y-145481773D01*
X78147937Y-145456655D01*
X78086798Y-145444276D01*
X77572466Y-145284407D01*
X77093862Y-145051370D01*
X76657376Y-144751420D01*
X76269396Y-144390808D01*
X75936312Y-143975789D01*
X75664512Y-143512615D01*
X75460385Y-143007541D01*
X75405583Y-142820025D01*
X75338979Y-142461757D01*
X75311465Y-142061074D01*
X75311880Y-142046480D01*
X76100688Y-142046480D01*
X76150889Y-142492756D01*
X76273719Y-142919929D01*
X76463195Y-143320166D01*
X76713333Y-143685631D01*
X77018149Y-144008489D01*
X77371660Y-144280906D01*
X77767882Y-144495047D01*
X78200830Y-144643077D01*
X78505938Y-144701039D01*
X78931238Y-144719498D01*
X79377674Y-144669392D01*
X79536489Y-144635384D01*
X79977583Y-144486180D01*
X80385107Y-144263435D01*
X80749417Y-143974822D01*
X81060871Y-143628017D01*
X81309826Y-143230692D01*
X81315426Y-143219663D01*
X81449544Y-142926768D01*
X81537815Y-142658601D01*
X81587961Y-142382358D01*
X81607704Y-142065234D01*
X81608805Y-141973358D01*
X81576476Y-141494947D01*
X81472991Y-141058506D01*
X81294963Y-140655892D01*
X81039001Y-140278957D01*
X80789347Y-140003741D01*
X80428238Y-139699840D01*
X80040703Y-139470817D01*
X79634425Y-139314060D01*
X79217087Y-139226954D01*
X78796373Y-139206886D01*
X78379966Y-139251243D01*
X77975548Y-139357411D01*
X77590804Y-139522777D01*
X77233416Y-139744727D01*
X76911067Y-140020648D01*
X76631442Y-140347926D01*
X76402222Y-140723948D01*
X76231091Y-141146100D01*
X76129101Y-141588937D01*
X76100688Y-142046480D01*
X75311880Y-142046480D01*
X75323145Y-141650718D01*
X75374124Y-141263431D01*
X75400201Y-141143759D01*
X75570590Y-140616839D01*
X75811695Y-140133027D01*
X76118632Y-139697316D01*
X76486516Y-139314697D01*
X76910463Y-138990162D01*
X77385588Y-138728702D01*
X77907005Y-138535308D01*
X77970155Y-138517538D01*
X78320984Y-138449712D01*
X78716357Y-138419358D01*
X79125298Y-138426090D01*
G36*
X92181923Y-150574045D02*
G01*
X92451525Y-150595207D01*
X92691509Y-150636401D01*
X92929088Y-150702530D01*
X93191477Y-150798497D01*
X93238002Y-150817119D01*
X93541287Y-150956240D01*
X93814247Y-151120839D01*
X94080828Y-151327322D01*
X94355840Y-151583025D01*
X94706200Y-151972771D01*
X94979501Y-152375341D01*
X95183338Y-152805061D01*
X95325305Y-153276256D01*
X95369065Y-153494298D01*
X95416414Y-153835960D01*
X95428804Y-154144534D01*
X95406172Y-154460267D01*
X95367097Y-154720708D01*
X95235810Y-155237355D01*
X95032094Y-155719295D01*
X94762790Y-156160838D01*
X94434743Y-156556294D01*
X94054794Y-156899972D01*
X93629787Y-157186182D01*
X93166564Y-157409234D01*
X92671968Y-157563436D01*
X92152841Y-157643098D01*
X91841181Y-157652879D01*
X91643340Y-157646495D01*
X91450913Y-157634090D01*
X91299787Y-157618101D01*
X91276828Y-157614545D01*
X90776976Y-157489240D01*
X90293480Y-157288848D01*
X89840512Y-157021858D01*
X89432245Y-156696754D01*
X89082851Y-156322024D01*
X89051601Y-156282025D01*
X88757699Y-155834276D01*
X88539498Y-155361711D01*
X88395188Y-154872172D01*
X88322957Y-154373504D01*
X88321627Y-154034535D01*
X89107835Y-154034535D01*
X89132363Y-154456281D01*
X89219884Y-154869022D01*
X89368399Y-155264707D01*
X89575908Y-155635281D01*
X89840413Y-155972692D01*
X90159916Y-156268885D01*
X90532417Y-156515809D01*
X90955918Y-156705409D01*
X91166112Y-156770836D01*
X91518040Y-156833506D01*
X91906667Y-156847417D01*
X92300562Y-156814068D01*
X92668289Y-156734960D01*
X92795082Y-156693046D01*
X93146966Y-156539434D01*
X93453135Y-156350118D01*
X93741200Y-156106595D01*
X93880668Y-155965525D01*
X94174729Y-155595931D01*
X94394435Y-155195558D01*
X94540391Y-154772983D01*
X94613205Y-154336785D01*
X94613484Y-153895543D01*
X94541836Y-153457834D01*
X94398866Y-153032237D01*
X94185183Y-152627329D01*
X93901392Y-152251689D01*
X93596837Y-151954430D01*
X93233155Y-151699246D01*
X92833159Y-151514083D01*
X92407610Y-151398587D01*
X91967269Y-151352404D01*
X91522897Y-151375181D01*
X91085253Y-151466564D01*
X90665098Y-151626200D01*
X90273193Y-151853735D01*
X90000035Y-152072610D01*
X89679620Y-152418577D01*
X89432191Y-152795806D01*
X89255750Y-153196245D01*
X89148297Y-153611839D01*
X89107835Y-154034535D01*
X88321627Y-154034535D01*
X88320994Y-153873549D01*
X88387488Y-153380153D01*
X88520628Y-152901157D01*
X88718602Y-152444407D01*
X88979599Y-152017745D01*
X89301808Y-151629015D01*
X89683417Y-151286062D01*
X90122616Y-150996728D01*
X90292504Y-150908165D01*
X90607429Y-150767774D01*
X90900044Y-150669493D01*
X91197503Y-150607414D01*
X91526962Y-150575627D01*
X91855489Y-150568010D01*
X92181923Y-150574045D01*
X92181923Y-150574045D01*
G37*
X92181923Y-150574045D02*
X92451525Y-150595207D01*
X92691509Y-150636401D01*
X92929088Y-150702530D01*
X93191477Y-150798497D01*
X93238002Y-150817119D01*
X93541287Y-150956240D01*
X93814247Y-151120839D01*
X94080828Y-151327322D01*
X94355840Y-151583025D01*
X94706200Y-151972771D01*
X94979501Y-152375341D01*
X95183338Y-152805061D01*
X95325305Y-153276256D01*
X95369065Y-153494298D01*
X95416414Y-153835960D01*
X95428804Y-154144534D01*
X95406172Y-154460267D01*
X95367097Y-154720708D01*
X95235810Y-155237355D01*
X95032094Y-155719295D01*
X94762790Y-156160838D01*
X94434743Y-156556294D01*
X94054794Y-156899972D01*
X93629787Y-157186182D01*
X93166564Y-157409234D01*
X92671968Y-157563436D01*
X92152841Y-157643098D01*
X91841181Y-157652879D01*
X91643340Y-157646495D01*
X91450913Y-157634090D01*
X91299787Y-157618101D01*
X91276828Y-157614545D01*
X90776976Y-157489240D01*
X90293480Y-157288848D01*
X89840512Y-157021858D01*
X89432245Y-156696754D01*
X89082851Y-156322024D01*
X89051601Y-156282025D01*
X88757699Y-155834276D01*
X88539498Y-155361711D01*
X88395188Y-154872172D01*
X88322957Y-154373504D01*
X88321627Y-154034535D01*
X89107835Y-154034535D01*
X89132363Y-154456281D01*
X89219884Y-154869022D01*
X89368399Y-155264707D01*
X89575908Y-155635281D01*
X89840413Y-155972692D01*
X90159916Y-156268885D01*
X90532417Y-156515809D01*
X90955918Y-156705409D01*
X91166112Y-156770836D01*
X91518040Y-156833506D01*
X91906667Y-156847417D01*
X92300562Y-156814068D01*
X92668289Y-156734960D01*
X92795082Y-156693046D01*
X93146966Y-156539434D01*
X93453135Y-156350118D01*
X93741200Y-156106595D01*
X93880668Y-155965525D01*
X94174729Y-155595931D01*
X94394435Y-155195558D01*
X94540391Y-154772983D01*
X94613205Y-154336785D01*
X94613484Y-153895543D01*
X94541836Y-153457834D01*
X94398866Y-153032237D01*
X94185183Y-152627329D01*
X93901392Y-152251689D01*
X93596837Y-151954430D01*
X93233155Y-151699246D01*
X92833159Y-151514083D01*
X92407610Y-151398587D01*
X91967269Y-151352404D01*
X91522897Y-151375181D01*
X91085253Y-151466564D01*
X90665098Y-151626200D01*
X90273193Y-151853735D01*
X90000035Y-152072610D01*
X89679620Y-152418577D01*
X89432191Y-152795806D01*
X89255750Y-153196245D01*
X89148297Y-153611839D01*
X89107835Y-154034535D01*
X88321627Y-154034535D01*
X88320994Y-153873549D01*
X88387488Y-153380153D01*
X88520628Y-152901157D01*
X88718602Y-152444407D01*
X88979599Y-152017745D01*
X89301808Y-151629015D01*
X89683417Y-151286062D01*
X90122616Y-150996728D01*
X90292504Y-150908165D01*
X90607429Y-150767774D01*
X90900044Y-150669493D01*
X91197503Y-150607414D01*
X91526962Y-150575627D01*
X91855489Y-150568010D01*
X92181923Y-150574045D01*
G36*
X79404961Y-150586540D02*
G01*
X79926386Y-150705855D01*
X80417067Y-150899710D01*
X80870640Y-151164011D01*
X81280743Y-151494665D01*
X81641011Y-151887578D01*
X81945081Y-152338656D01*
X82093879Y-152626816D01*
X82226053Y-152936118D01*
X82317462Y-153216515D01*
X82374161Y-153496851D01*
X82402205Y-153805967D01*
X82407996Y-154123025D01*
X82404260Y-154375096D01*
X82393376Y-154569497D01*
X82372006Y-154733140D01*
X82336812Y-154892936D01*
X82293563Y-155045747D01*
X82092828Y-155577156D01*
X81827658Y-156058140D01*
X81502562Y-156484543D01*
X81122051Y-156852214D01*
X80690634Y-157156999D01*
X80212820Y-157394743D01*
X79693119Y-157561295D01*
X79522181Y-157598211D01*
X79202200Y-157639303D01*
X78844381Y-157652025D01*
X78486782Y-157636665D01*
X78167459Y-157593511D01*
X78139489Y-157587762D01*
X77616978Y-157434374D01*
X77131364Y-157207955D01*
X76688731Y-156914333D01*
X76295162Y-156559339D01*
X75956739Y-156148800D01*
X75679548Y-155688546D01*
X75469671Y-155184405D01*
X75404765Y-154967406D01*
X75343495Y-154644653D01*
X75313636Y-154275198D01*
X75314392Y-154087669D01*
X76107161Y-154087669D01*
X76129856Y-154480372D01*
X76201431Y-154840326D01*
X76208406Y-154863858D01*
X76387412Y-155311980D01*
X76635692Y-155717589D01*
X76945908Y-156073550D01*
X77310721Y-156372727D01*
X77722790Y-156607984D01*
X78169779Y-156770836D01*
X78431492Y-156819649D01*
X78736756Y-156841755D01*
X79056697Y-156837878D01*
X79362441Y-156808744D01*
X79625113Y-156755078D01*
X79696309Y-156732504D01*
X80063118Y-156579767D01*
X80380048Y-156394099D01*
X80678114Y-156155943D01*
X80811194Y-156029571D01*
X80989900Y-155844239D01*
X81122297Y-155683257D01*
X81228823Y-155518885D01*
X81326979Y-155329525D01*
X81508863Y-154862794D01*
X81606120Y-154398027D01*
X81618750Y-153934618D01*
X81546753Y-153471964D01*
X81390130Y-153009460D01*
X81328357Y-152874192D01*
X81150453Y-152573981D01*
X80915842Y-152278166D01*
X80644628Y-152007301D01*
X80356917Y-151781945D01*
X80130219Y-151649136D01*
X79716454Y-151485597D01*
X79280351Y-151383598D01*
X78841833Y-151345594D01*
X78420825Y-151374040D01*
X78222466Y-151414112D01*
X77771778Y-151570822D01*
X77357577Y-151799565D01*
X76987941Y-152092619D01*
X76670948Y-152442260D01*
X76414677Y-152840762D01*
X76227206Y-153280404D01*
X76208406Y-153339858D01*
X76133344Y-153696178D01*
X76107161Y-154087669D01*
X75314392Y-154087669D01*
X75315187Y-153890965D01*
X75348148Y-153523877D01*
X75404805Y-153234025D01*
X75583593Y-152715571D01*
X75830419Y-152240318D01*
X76138808Y-151813305D01*
X76502289Y-151439568D01*
X76914386Y-151124146D01*
X77368627Y-150872076D01*
X77858538Y-150688397D01*
X78377644Y-150578144D01*
X78859155Y-150545858D01*
X79404961Y-150586540D01*
X79404961Y-150586540D01*
G37*
X79404961Y-150586540D02*
X79926386Y-150705855D01*
X80417067Y-150899710D01*
X80870640Y-151164011D01*
X81280743Y-151494665D01*
X81641011Y-151887578D01*
X81945081Y-152338656D01*
X82093879Y-152626816D01*
X82226053Y-152936118D01*
X82317462Y-153216515D01*
X82374161Y-153496851D01*
X82402205Y-153805967D01*
X82407996Y-154123025D01*
X82404260Y-154375096D01*
X82393376Y-154569497D01*
X82372006Y-154733140D01*
X82336812Y-154892936D01*
X82293563Y-155045747D01*
X82092828Y-155577156D01*
X81827658Y-156058140D01*
X81502562Y-156484543D01*
X81122051Y-156852214D01*
X80690634Y-157156999D01*
X80212820Y-157394743D01*
X79693119Y-157561295D01*
X79522181Y-157598211D01*
X79202200Y-157639303D01*
X78844381Y-157652025D01*
X78486782Y-157636665D01*
X78167459Y-157593511D01*
X78139489Y-157587762D01*
X77616978Y-157434374D01*
X77131364Y-157207955D01*
X76688731Y-156914333D01*
X76295162Y-156559339D01*
X75956739Y-156148800D01*
X75679548Y-155688546D01*
X75469671Y-155184405D01*
X75404765Y-154967406D01*
X75343495Y-154644653D01*
X75313636Y-154275198D01*
X75314392Y-154087669D01*
X76107161Y-154087669D01*
X76129856Y-154480372D01*
X76201431Y-154840326D01*
X76208406Y-154863858D01*
X76387412Y-155311980D01*
X76635692Y-155717589D01*
X76945908Y-156073550D01*
X77310721Y-156372727D01*
X77722790Y-156607984D01*
X78169779Y-156770836D01*
X78431492Y-156819649D01*
X78736756Y-156841755D01*
X79056697Y-156837878D01*
X79362441Y-156808744D01*
X79625113Y-156755078D01*
X79696309Y-156732504D01*
X80063118Y-156579767D01*
X80380048Y-156394099D01*
X80678114Y-156155943D01*
X80811194Y-156029571D01*
X80989900Y-155844239D01*
X81122297Y-155683257D01*
X81228823Y-155518885D01*
X81326979Y-155329525D01*
X81508863Y-154862794D01*
X81606120Y-154398027D01*
X81618750Y-153934618D01*
X81546753Y-153471964D01*
X81390130Y-153009460D01*
X81328357Y-152874192D01*
X81150453Y-152573981D01*
X80915842Y-152278166D01*
X80644628Y-152007301D01*
X80356917Y-151781945D01*
X80130219Y-151649136D01*
X79716454Y-151485597D01*
X79280351Y-151383598D01*
X78841833Y-151345594D01*
X78420825Y-151374040D01*
X78222466Y-151414112D01*
X77771778Y-151570822D01*
X77357577Y-151799565D01*
X76987941Y-152092619D01*
X76670948Y-152442260D01*
X76414677Y-152840762D01*
X76227206Y-153280404D01*
X76208406Y-153339858D01*
X76133344Y-153696178D01*
X76107161Y-154087669D01*
X75314392Y-154087669D01*
X75315187Y-153890965D01*
X75348148Y-153523877D01*
X75404805Y-153234025D01*
X75583593Y-152715571D01*
X75830419Y-152240318D01*
X76138808Y-151813305D01*
X76502289Y-151439568D01*
X76914386Y-151124146D01*
X77368627Y-150872076D01*
X77858538Y-150688397D01*
X78377644Y-150578144D01*
X78859155Y-150545858D01*
X79404961Y-150586540D01*
D11*
X91860000Y-154087278D03*
X91860000Y-141949498D03*
X91860000Y-129975835D03*
X78866740Y-103731146D03*
X78866740Y-154087278D03*
X78866740Y-141949498D03*
X78866740Y-129975835D03*
D12*
X74700000Y-108930000D03*
X83000000Y-159120000D03*
X82750000Y-134270000D03*
X83100000Y-146270000D03*
X95570000Y-148870000D03*
X86850000Y-137790000D03*
D13*
X92800000Y-112844000D03*
X92800000Y-116400000D03*
X94640000Y-89928000D03*
X94640000Y-86372000D03*
X74960000Y-58422000D03*
X74960000Y-61978000D03*
X95600000Y-116408000D03*
X95600000Y-112852000D03*
X94640000Y-92292000D03*
X94640000Y-95848000D03*
X74990000Y-68590000D03*
X74990000Y-65034000D03*
X85490000Y-120254000D03*
X85490000Y-123810000D03*
X88610000Y-120254000D03*
X88610000Y-123810000D03*
X82370000Y-120254000D03*
X82370000Y-123810000D03*
X84060000Y-116536000D03*
X84060000Y-112980000D03*
X87080000Y-113052000D03*
X87080000Y-116608000D03*
D14*
X74680000Y-113810000D03*
X78236000Y-113810000D03*
X93578000Y-106130000D03*
X90022000Y-106130000D03*
X96076000Y-123020000D03*
X92520000Y-123020000D03*
X93528000Y-101200000D03*
X89972000Y-101200000D03*
D15*
X75080000Y-95050000D03*
D16*
X75080000Y-97590000D03*
D17*
X87770000Y-99750000D03*
X95790000Y-107370000D03*
X87770000Y-102290000D03*
X95790000Y-104830000D03*
X87770000Y-104830000D03*
X95790000Y-102290000D03*
X87770000Y-107370000D03*
X95790000Y-99750000D03*
D18*
X79940000Y-94520000D03*
X84860000Y-94520000D03*
X89940000Y-94520000D03*
X79970000Y-71450000D03*
X84890000Y-71450000D03*
X89970000Y-71450000D03*
D12*
X94810000Y-125550000D03*
M02*
