G04 #@! TF.GenerationSoftware,KiCad,Pcbnew,5.1.2-f72e74a~84~ubuntu16.04.1*
G04 #@! TF.CreationDate,2019-05-06T13:36:40+08:00*
G04 #@! TF.ProjectId,8Bit_EuroRack,38426974-5f45-4757-926f-5261636b2e6b,rev?*
G04 #@! TF.SameCoordinates,Original*
G04 #@! TF.FileFunction,Legend,Bot*
G04 #@! TF.FilePolarity,Positive*
%FSLAX46Y46*%
G04 Gerber Fmt 4.6, Leading zero omitted, Abs format (unit mm)*
G04 Created by KiCad (PCBNEW 5.1.2-f72e74a~84~ubuntu16.04.1) date 2019-05-06 13:36:40*
%MOMM*%
%LPD*%
G04 APERTURE LIST*
%ADD10C,0.010000*%
G04 APERTURE END LIST*
D10*
G36*
X93627947Y-46498748D02*
G01*
X93686556Y-46698117D01*
X93754992Y-46940769D01*
X93822400Y-47187887D01*
X93853478Y-47305402D01*
X93902788Y-47487623D01*
X93946084Y-47635052D01*
X93978291Y-47731182D01*
X93993322Y-47760243D01*
X94011127Y-47721567D01*
X94046862Y-47614718D01*
X94096334Y-47453245D01*
X94155351Y-47250702D01*
X94199598Y-47093532D01*
X94283518Y-46793044D01*
X94349665Y-46564401D01*
X94402641Y-46397793D01*
X94447046Y-46283409D01*
X94487482Y-46211437D01*
X94528549Y-46172067D01*
X94574849Y-46155486D01*
X94630983Y-46151885D01*
X94641207Y-46151858D01*
X94785412Y-46151858D01*
X94812508Y-46437608D01*
X94821716Y-46566624D01*
X94831860Y-46762740D01*
X94842220Y-47008406D01*
X94852070Y-47286072D01*
X94860689Y-47578187D01*
X94862648Y-47654692D01*
X94870201Y-47935690D01*
X94878309Y-48195593D01*
X94886430Y-48419826D01*
X94894019Y-48593812D01*
X94900534Y-48702976D01*
X94902512Y-48723608D01*
X94908343Y-48812105D01*
X94881792Y-48851125D01*
X94800801Y-48860919D01*
X94752660Y-48861192D01*
X94585989Y-48861192D01*
X94585989Y-48592756D01*
X94584094Y-48452408D01*
X94578891Y-48251048D01*
X94571101Y-48012233D01*
X94561446Y-47759521D01*
X94557837Y-47673917D01*
X94547204Y-47439318D01*
X94536571Y-47270183D01*
X94523223Y-47168765D01*
X94504444Y-47137318D01*
X94477519Y-47178096D01*
X94439732Y-47293351D01*
X94388367Y-47485338D01*
X94320709Y-47756310D01*
X94285349Y-47900042D01*
X94141798Y-48484059D01*
X93857794Y-48459025D01*
X93686472Y-47771108D01*
X93627737Y-47543468D01*
X93573309Y-47347628D01*
X93527255Y-47197080D01*
X93493644Y-47105318D01*
X93479069Y-47083192D01*
X93467949Y-47123379D01*
X93458219Y-47235369D01*
X93450444Y-47406300D01*
X93445188Y-47623312D01*
X93443015Y-47873543D01*
X93442989Y-47905229D01*
X93441710Y-48164119D01*
X93438149Y-48396576D01*
X93432719Y-48588305D01*
X93425834Y-48725012D01*
X93417905Y-48792400D01*
X93417293Y-48794229D01*
X93353099Y-48846496D01*
X93242205Y-48861192D01*
X93092812Y-48861192D01*
X93124404Y-47898108D01*
X93135079Y-47593057D01*
X93146856Y-47290943D01*
X93158904Y-47010793D01*
X93170393Y-46771632D01*
X93180493Y-46592487D01*
X93183076Y-46554025D01*
X93210155Y-46173025D01*
X93365624Y-46160082D01*
X93521092Y-46147139D01*
X93627947Y-46498748D01*
X93627947Y-46498748D01*
G37*
X93627947Y-46498748D02*
X93686556Y-46698117D01*
X93754992Y-46940769D01*
X93822400Y-47187887D01*
X93853478Y-47305402D01*
X93902788Y-47487623D01*
X93946084Y-47635052D01*
X93978291Y-47731182D01*
X93993322Y-47760243D01*
X94011127Y-47721567D01*
X94046862Y-47614718D01*
X94096334Y-47453245D01*
X94155351Y-47250702D01*
X94199598Y-47093532D01*
X94283518Y-46793044D01*
X94349665Y-46564401D01*
X94402641Y-46397793D01*
X94447046Y-46283409D01*
X94487482Y-46211437D01*
X94528549Y-46172067D01*
X94574849Y-46155486D01*
X94630983Y-46151885D01*
X94641207Y-46151858D01*
X94785412Y-46151858D01*
X94812508Y-46437608D01*
X94821716Y-46566624D01*
X94831860Y-46762740D01*
X94842220Y-47008406D01*
X94852070Y-47286072D01*
X94860689Y-47578187D01*
X94862648Y-47654692D01*
X94870201Y-47935690D01*
X94878309Y-48195593D01*
X94886430Y-48419826D01*
X94894019Y-48593812D01*
X94900534Y-48702976D01*
X94902512Y-48723608D01*
X94908343Y-48812105D01*
X94881792Y-48851125D01*
X94800801Y-48860919D01*
X94752660Y-48861192D01*
X94585989Y-48861192D01*
X94585989Y-48592756D01*
X94584094Y-48452408D01*
X94578891Y-48251048D01*
X94571101Y-48012233D01*
X94561446Y-47759521D01*
X94557837Y-47673917D01*
X94547204Y-47439318D01*
X94536571Y-47270183D01*
X94523223Y-47168765D01*
X94504444Y-47137318D01*
X94477519Y-47178096D01*
X94439732Y-47293351D01*
X94388367Y-47485338D01*
X94320709Y-47756310D01*
X94285349Y-47900042D01*
X94141798Y-48484059D01*
X93857794Y-48459025D01*
X93686472Y-47771108D01*
X93627737Y-47543468D01*
X93573309Y-47347628D01*
X93527255Y-47197080D01*
X93493644Y-47105318D01*
X93479069Y-47083192D01*
X93467949Y-47123379D01*
X93458219Y-47235369D01*
X93450444Y-47406300D01*
X93445188Y-47623312D01*
X93443015Y-47873543D01*
X93442989Y-47905229D01*
X93441710Y-48164119D01*
X93438149Y-48396576D01*
X93432719Y-48588305D01*
X93425834Y-48725012D01*
X93417905Y-48792400D01*
X93417293Y-48794229D01*
X93353099Y-48846496D01*
X93242205Y-48861192D01*
X93092812Y-48861192D01*
X93124404Y-47898108D01*
X93135079Y-47593057D01*
X93146856Y-47290943D01*
X93158904Y-47010793D01*
X93170393Y-46771632D01*
X93180493Y-46592487D01*
X93183076Y-46554025D01*
X93210155Y-46173025D01*
X93365624Y-46160082D01*
X93521092Y-46147139D01*
X93627947Y-46498748D01*
G36*
X92333572Y-46184056D02*
G01*
X92367953Y-46261855D01*
X92385921Y-46325893D01*
X92435042Y-46518871D01*
X92491875Y-46759424D01*
X92553635Y-47033932D01*
X92617535Y-47328773D01*
X92680789Y-47630328D01*
X92740611Y-47924977D01*
X92794214Y-48199098D01*
X92838812Y-48439073D01*
X92871620Y-48631279D01*
X92889851Y-48762099D01*
X92892655Y-48803065D01*
X92868908Y-48844981D01*
X92786737Y-48856125D01*
X92734264Y-48853164D01*
X92643512Y-48842068D01*
X92593010Y-48813612D01*
X92565955Y-48746061D01*
X92545543Y-48617677D01*
X92544112Y-48607192D01*
X92517615Y-48414519D01*
X92492979Y-48290722D01*
X92457559Y-48221262D01*
X92398710Y-48191600D01*
X92303788Y-48187198D01*
X92183483Y-48192537D01*
X91900214Y-48205025D01*
X91870424Y-48374358D01*
X91842904Y-48533396D01*
X91816188Y-48691607D01*
X91814393Y-48702442D01*
X91791944Y-48803778D01*
X91751103Y-48849071D01*
X91663760Y-48860832D01*
X91616148Y-48861192D01*
X91507689Y-48856563D01*
X91463487Y-48834074D01*
X91463280Y-48780819D01*
X91466592Y-48765942D01*
X91481853Y-48691668D01*
X91508710Y-48551512D01*
X91543885Y-48362941D01*
X91584100Y-48143422D01*
X91601953Y-48044818D01*
X91656006Y-47763167D01*
X91987404Y-47763167D01*
X91987716Y-47811317D01*
X92039128Y-47831848D01*
X92144140Y-47843881D01*
X92196654Y-47845192D01*
X92313605Y-47840246D01*
X92368383Y-47817835D01*
X92383262Y-47766598D01*
X92383388Y-47749942D01*
X92375163Y-47684403D01*
X92354021Y-47566026D01*
X92323941Y-47413379D01*
X92288903Y-47245030D01*
X92252889Y-47079549D01*
X92219879Y-46935503D01*
X92193852Y-46831461D01*
X92178791Y-46785992D01*
X92176934Y-46786858D01*
X92166921Y-46834237D01*
X92142962Y-46947275D01*
X92108698Y-47108810D01*
X92069666Y-47292734D01*
X92030940Y-47485894D01*
X92002588Y-47648598D01*
X91987404Y-47763167D01*
X91656006Y-47763167D01*
X91658070Y-47752417D01*
X91727327Y-47419310D01*
X91800916Y-47086564D01*
X91869843Y-46795984D01*
X92024822Y-46173025D01*
X92181289Y-46160022D01*
X92280002Y-46157125D01*
X92333572Y-46184056D01*
X92333572Y-46184056D01*
G37*
X92333572Y-46184056D02*
X92367953Y-46261855D01*
X92385921Y-46325893D01*
X92435042Y-46518871D01*
X92491875Y-46759424D01*
X92553635Y-47033932D01*
X92617535Y-47328773D01*
X92680789Y-47630328D01*
X92740611Y-47924977D01*
X92794214Y-48199098D01*
X92838812Y-48439073D01*
X92871620Y-48631279D01*
X92889851Y-48762099D01*
X92892655Y-48803065D01*
X92868908Y-48844981D01*
X92786737Y-48856125D01*
X92734264Y-48853164D01*
X92643512Y-48842068D01*
X92593010Y-48813612D01*
X92565955Y-48746061D01*
X92545543Y-48617677D01*
X92544112Y-48607192D01*
X92517615Y-48414519D01*
X92492979Y-48290722D01*
X92457559Y-48221262D01*
X92398710Y-48191600D01*
X92303788Y-48187198D01*
X92183483Y-48192537D01*
X91900214Y-48205025D01*
X91870424Y-48374358D01*
X91842904Y-48533396D01*
X91816188Y-48691607D01*
X91814393Y-48702442D01*
X91791944Y-48803778D01*
X91751103Y-48849071D01*
X91663760Y-48860832D01*
X91616148Y-48861192D01*
X91507689Y-48856563D01*
X91463487Y-48834074D01*
X91463280Y-48780819D01*
X91466592Y-48765942D01*
X91481853Y-48691668D01*
X91508710Y-48551512D01*
X91543885Y-48362941D01*
X91584100Y-48143422D01*
X91601953Y-48044818D01*
X91656006Y-47763167D01*
X91987404Y-47763167D01*
X91987716Y-47811317D01*
X92039128Y-47831848D01*
X92144140Y-47843881D01*
X92196654Y-47845192D01*
X92313605Y-47840246D01*
X92368383Y-47817835D01*
X92383262Y-47766598D01*
X92383388Y-47749942D01*
X92375163Y-47684403D01*
X92354021Y-47566026D01*
X92323941Y-47413379D01*
X92288903Y-47245030D01*
X92252889Y-47079549D01*
X92219879Y-46935503D01*
X92193852Y-46831461D01*
X92178791Y-46785992D01*
X92176934Y-46786858D01*
X92166921Y-46834237D01*
X92142962Y-46947275D01*
X92108698Y-47108810D01*
X92069666Y-47292734D01*
X92030940Y-47485894D01*
X92002588Y-47648598D01*
X91987404Y-47763167D01*
X91656006Y-47763167D01*
X91658070Y-47752417D01*
X91727327Y-47419310D01*
X91800916Y-47086564D01*
X91869843Y-46795984D01*
X92024822Y-46173025D01*
X92181289Y-46160022D01*
X92280002Y-46157125D01*
X92333572Y-46184056D01*
G36*
X89505989Y-48861192D02*
G01*
X88489989Y-48861192D01*
X88489989Y-48480192D01*
X89167322Y-48480192D01*
X89167322Y-47633525D01*
X88569787Y-47633525D01*
X88582804Y-47453608D01*
X88595822Y-47273692D01*
X89167322Y-47248656D01*
X89167322Y-46532858D01*
X88532322Y-46532858D01*
X88532322Y-46151858D01*
X89505989Y-46151858D01*
X89505989Y-48861192D01*
X89505989Y-48861192D01*
G37*
X89505989Y-48861192D02*
X88489989Y-48861192D01*
X88489989Y-48480192D01*
X89167322Y-48480192D01*
X89167322Y-47633525D01*
X88569787Y-47633525D01*
X88582804Y-47453608D01*
X88595822Y-47273692D01*
X89167322Y-47248656D01*
X89167322Y-46532858D01*
X88532322Y-46532858D01*
X88532322Y-46151858D01*
X89505989Y-46151858D01*
X89505989Y-48861192D01*
G36*
X87600989Y-48861192D02*
G01*
X87262322Y-48861192D01*
X87262322Y-46151858D01*
X87600989Y-46151858D01*
X87600989Y-48861192D01*
X87600989Y-48861192D01*
G37*
X87600989Y-48861192D02*
X87262322Y-48861192D01*
X87262322Y-46151858D01*
X87600989Y-46151858D01*
X87600989Y-48861192D01*
G36*
X86838989Y-48861192D02*
G01*
X86500322Y-48861192D01*
X86497332Y-47961608D01*
X86494341Y-47062025D01*
X86409897Y-47252525D01*
X86367381Y-47355557D01*
X86302927Y-47520675D01*
X86223239Y-47730288D01*
X86135024Y-47966808D01*
X86066995Y-48152108D01*
X85808538Y-48861192D01*
X85525466Y-48861192D01*
X85536644Y-47517108D01*
X85547822Y-46173025D01*
X85865322Y-46146747D01*
X85867026Y-46985386D01*
X85868731Y-47824025D01*
X86113515Y-47210192D01*
X86239286Y-46896817D01*
X86339701Y-46653479D01*
X86419790Y-46471188D01*
X86484585Y-46340955D01*
X86539115Y-46253792D01*
X86588413Y-46200708D01*
X86637509Y-46172714D01*
X86691434Y-46160823D01*
X86701405Y-46159759D01*
X86838989Y-46146494D01*
X86838989Y-48861192D01*
X86838989Y-48861192D01*
G37*
X86838989Y-48861192D02*
X86500322Y-48861192D01*
X86497332Y-47961608D01*
X86494341Y-47062025D01*
X86409897Y-47252525D01*
X86367381Y-47355557D01*
X86302927Y-47520675D01*
X86223239Y-47730288D01*
X86135024Y-47966808D01*
X86066995Y-48152108D01*
X85808538Y-48861192D01*
X85525466Y-48861192D01*
X85536644Y-47517108D01*
X85547822Y-46173025D01*
X85865322Y-46146747D01*
X85867026Y-46985386D01*
X85868731Y-47824025D01*
X86113515Y-47210192D01*
X86239286Y-46896817D01*
X86339701Y-46653479D01*
X86419790Y-46471188D01*
X86484585Y-46340955D01*
X86539115Y-46253792D01*
X86588413Y-46200708D01*
X86637509Y-46172714D01*
X86691434Y-46160823D01*
X86701405Y-46159759D01*
X86838989Y-46146494D01*
X86838989Y-48861192D01*
G36*
X84756506Y-46352942D02*
G01*
X84769523Y-46532858D01*
X84298989Y-46532858D01*
X84298989Y-48861192D01*
X83960322Y-48861192D01*
X83960322Y-46532858D01*
X83489787Y-46532858D01*
X83502804Y-46352942D01*
X83515822Y-46173025D01*
X84743489Y-46173025D01*
X84756506Y-46352942D01*
X84756506Y-46352942D01*
G37*
X84756506Y-46352942D02*
X84769523Y-46532858D01*
X84298989Y-46532858D01*
X84298989Y-48861192D01*
X83960322Y-48861192D01*
X83960322Y-46532858D01*
X83489787Y-46532858D01*
X83502804Y-46352942D01*
X83515822Y-46173025D01*
X84743489Y-46173025D01*
X84756506Y-46352942D01*
G36*
X83171463Y-46776275D02*
G01*
X83216167Y-46970062D01*
X83267552Y-47204433D01*
X83322777Y-47465129D01*
X83379001Y-47737895D01*
X83433384Y-48008473D01*
X83483082Y-48262605D01*
X83525255Y-48486036D01*
X83557062Y-48664507D01*
X83575661Y-48783762D01*
X83579322Y-48822801D01*
X83541828Y-48847133D01*
X83448479Y-48860380D01*
X83414866Y-48861192D01*
X83250411Y-48861192D01*
X83221228Y-48617775D01*
X83197472Y-48423464D01*
X83173919Y-48297900D01*
X83138103Y-48226118D01*
X83077557Y-48193151D01*
X82979816Y-48184034D01*
X82859777Y-48183858D01*
X82572744Y-48183858D01*
X82549003Y-48321442D01*
X82528072Y-48451097D01*
X82504376Y-48609322D01*
X82497152Y-48660108D01*
X82477161Y-48780913D01*
X82447535Y-48839957D01*
X82387088Y-48859356D01*
X82304515Y-48861192D01*
X82200255Y-48852442D01*
X82143477Y-48830658D01*
X82139989Y-48822801D01*
X82148464Y-48749749D01*
X82171997Y-48608201D01*
X82207746Y-48412415D01*
X82252869Y-48176646D01*
X82304525Y-47915152D01*
X82326349Y-47807518D01*
X82647989Y-47807518D01*
X82686069Y-47829011D01*
X82783434Y-47842651D01*
X82859655Y-47845192D01*
X82988197Y-47839961D01*
X83051853Y-47819718D01*
X83070007Y-47777638D01*
X83070054Y-47771108D01*
X83060188Y-47679540D01*
X83035850Y-47545480D01*
X83001638Y-47387278D01*
X82962149Y-47223280D01*
X82921980Y-47071836D01*
X82885728Y-46951294D01*
X82857991Y-46880000D01*
X82844664Y-46871525D01*
X82826215Y-46936167D01*
X82796713Y-47060732D01*
X82760887Y-47222708D01*
X82723470Y-47399579D01*
X82689192Y-47568833D01*
X82662783Y-47707956D01*
X82648974Y-47794434D01*
X82647989Y-47807518D01*
X82326349Y-47807518D01*
X82359873Y-47642191D01*
X82416071Y-47372019D01*
X82470279Y-47118893D01*
X82519654Y-46897070D01*
X82547847Y-46776275D01*
X82697401Y-46151858D01*
X83021909Y-46151858D01*
X83171463Y-46776275D01*
X83171463Y-46776275D01*
G37*
X83171463Y-46776275D02*
X83216167Y-46970062D01*
X83267552Y-47204433D01*
X83322777Y-47465129D01*
X83379001Y-47737895D01*
X83433384Y-48008473D01*
X83483082Y-48262605D01*
X83525255Y-48486036D01*
X83557062Y-48664507D01*
X83575661Y-48783762D01*
X83579322Y-48822801D01*
X83541828Y-48847133D01*
X83448479Y-48860380D01*
X83414866Y-48861192D01*
X83250411Y-48861192D01*
X83221228Y-48617775D01*
X83197472Y-48423464D01*
X83173919Y-48297900D01*
X83138103Y-48226118D01*
X83077557Y-48193151D01*
X82979816Y-48184034D01*
X82859777Y-48183858D01*
X82572744Y-48183858D01*
X82549003Y-48321442D01*
X82528072Y-48451097D01*
X82504376Y-48609322D01*
X82497152Y-48660108D01*
X82477161Y-48780913D01*
X82447535Y-48839957D01*
X82387088Y-48859356D01*
X82304515Y-48861192D01*
X82200255Y-48852442D01*
X82143477Y-48830658D01*
X82139989Y-48822801D01*
X82148464Y-48749749D01*
X82171997Y-48608201D01*
X82207746Y-48412415D01*
X82252869Y-48176646D01*
X82304525Y-47915152D01*
X82326349Y-47807518D01*
X82647989Y-47807518D01*
X82686069Y-47829011D01*
X82783434Y-47842651D01*
X82859655Y-47845192D01*
X82988197Y-47839961D01*
X83051853Y-47819718D01*
X83070007Y-47777638D01*
X83070054Y-47771108D01*
X83060188Y-47679540D01*
X83035850Y-47545480D01*
X83001638Y-47387278D01*
X82962149Y-47223280D01*
X82921980Y-47071836D01*
X82885728Y-46951294D01*
X82857991Y-46880000D01*
X82844664Y-46871525D01*
X82826215Y-46936167D01*
X82796713Y-47060732D01*
X82760887Y-47222708D01*
X82723470Y-47399579D01*
X82689192Y-47568833D01*
X82662783Y-47707956D01*
X82648974Y-47794434D01*
X82647989Y-47807518D01*
X82326349Y-47807518D01*
X82359873Y-47642191D01*
X82416071Y-47372019D01*
X82470279Y-47118893D01*
X82519654Y-46897070D01*
X82547847Y-46776275D01*
X82697401Y-46151858D01*
X83021909Y-46151858D01*
X83171463Y-46776275D01*
G36*
X81885989Y-48861192D02*
G01*
X81546133Y-48861192D01*
X81557311Y-47517108D01*
X81568489Y-46173025D01*
X81885989Y-46146747D01*
X81885989Y-48861192D01*
X81885989Y-48861192D01*
G37*
X81885989Y-48861192D02*
X81546133Y-48861192D01*
X81557311Y-47517108D01*
X81568489Y-46173025D01*
X81885989Y-46146747D01*
X81885989Y-48861192D01*
G36*
X81233309Y-46519358D02*
G01*
X81210174Y-46766438D01*
X81176687Y-47068001D01*
X81136019Y-47399814D01*
X81091345Y-47737644D01*
X81045838Y-48057256D01*
X81002670Y-48334417D01*
X80974563Y-48495451D01*
X80945511Y-48652689D01*
X80923701Y-48774390D01*
X80912875Y-48839545D01*
X80912322Y-48844701D01*
X80874815Y-48855203D01*
X80781561Y-48860870D01*
X80749601Y-48861192D01*
X80586880Y-48861192D01*
X80452256Y-48267053D01*
X80401024Y-48035680D01*
X80354759Y-47817056D01*
X80317854Y-47632622D01*
X80294701Y-47503814D01*
X80291564Y-47482731D01*
X80264912Y-47341731D01*
X80236280Y-47282194D01*
X80208061Y-47305072D01*
X80182647Y-47411316D01*
X80178763Y-47437842D01*
X80160700Y-47545295D01*
X80128294Y-47714894D01*
X80085621Y-47926150D01*
X80036759Y-48158572D01*
X80018934Y-48241201D01*
X79884238Y-48861192D01*
X79723800Y-48861192D01*
X79604132Y-48847661D01*
X79547793Y-48802267D01*
X79542090Y-48787108D01*
X79516383Y-48672379D01*
X79483819Y-48488981D01*
X79446444Y-48252439D01*
X79406302Y-47978281D01*
X79365440Y-47682034D01*
X79325901Y-47379225D01*
X79289731Y-47085382D01*
X79258977Y-46816031D01*
X79235682Y-46586700D01*
X79221892Y-46412916D01*
X79218989Y-46334201D01*
X79222655Y-46220419D01*
X79246183Y-46167755D01*
X79308368Y-46152668D01*
X79364561Y-46151858D01*
X79411081Y-46150033D01*
X79447389Y-46150830D01*
X79475704Y-46163655D01*
X79498245Y-46197914D01*
X79517230Y-46263016D01*
X79534878Y-46368366D01*
X79553407Y-46523371D01*
X79575035Y-46737439D01*
X79601982Y-47019975D01*
X79624139Y-47252505D01*
X79648982Y-47498988D01*
X79673515Y-47720072D01*
X79695846Y-47900296D01*
X79714081Y-48024198D01*
X79724567Y-48072707D01*
X79742816Y-48064357D01*
X79772514Y-47977605D01*
X79812278Y-47817738D01*
X79860726Y-47590043D01*
X79890590Y-47437727D01*
X79937282Y-47193730D01*
X79979869Y-46971353D01*
X80015186Y-46787105D01*
X80040070Y-46657492D01*
X80049814Y-46606942D01*
X80076314Y-46528912D01*
X80133481Y-46496392D01*
X80228293Y-46490525D01*
X80384203Y-46490525D01*
X80526958Y-47241942D01*
X80586340Y-47551748D01*
X80632790Y-47785171D01*
X80668421Y-47949143D01*
X80695345Y-48050600D01*
X80715676Y-48096477D01*
X80731526Y-48093707D01*
X80745009Y-48049225D01*
X80755129Y-47990774D01*
X80767125Y-47896671D01*
X80785079Y-47736352D01*
X80807180Y-47527911D01*
X80831613Y-47289440D01*
X80856565Y-47039033D01*
X80880223Y-46794784D01*
X80900773Y-46574786D01*
X80916402Y-46397132D01*
X80922456Y-46321192D01*
X80936591Y-46224528D01*
X80977167Y-46179540D01*
X81070614Y-46161927D01*
X81098297Y-46159525D01*
X81263105Y-46146025D01*
X81233309Y-46519358D01*
X81233309Y-46519358D01*
G37*
X81233309Y-46519358D02*
X81210174Y-46766438D01*
X81176687Y-47068001D01*
X81136019Y-47399814D01*
X81091345Y-47737644D01*
X81045838Y-48057256D01*
X81002670Y-48334417D01*
X80974563Y-48495451D01*
X80945511Y-48652689D01*
X80923701Y-48774390D01*
X80912875Y-48839545D01*
X80912322Y-48844701D01*
X80874815Y-48855203D01*
X80781561Y-48860870D01*
X80749601Y-48861192D01*
X80586880Y-48861192D01*
X80452256Y-48267053D01*
X80401024Y-48035680D01*
X80354759Y-47817056D01*
X80317854Y-47632622D01*
X80294701Y-47503814D01*
X80291564Y-47482731D01*
X80264912Y-47341731D01*
X80236280Y-47282194D01*
X80208061Y-47305072D01*
X80182647Y-47411316D01*
X80178763Y-47437842D01*
X80160700Y-47545295D01*
X80128294Y-47714894D01*
X80085621Y-47926150D01*
X80036759Y-48158572D01*
X80018934Y-48241201D01*
X79884238Y-48861192D01*
X79723800Y-48861192D01*
X79604132Y-48847661D01*
X79547793Y-48802267D01*
X79542090Y-48787108D01*
X79516383Y-48672379D01*
X79483819Y-48488981D01*
X79446444Y-48252439D01*
X79406302Y-47978281D01*
X79365440Y-47682034D01*
X79325901Y-47379225D01*
X79289731Y-47085382D01*
X79258977Y-46816031D01*
X79235682Y-46586700D01*
X79221892Y-46412916D01*
X79218989Y-46334201D01*
X79222655Y-46220419D01*
X79246183Y-46167755D01*
X79308368Y-46152668D01*
X79364561Y-46151858D01*
X79411081Y-46150033D01*
X79447389Y-46150830D01*
X79475704Y-46163655D01*
X79498245Y-46197914D01*
X79517230Y-46263016D01*
X79534878Y-46368366D01*
X79553407Y-46523371D01*
X79575035Y-46737439D01*
X79601982Y-47019975D01*
X79624139Y-47252505D01*
X79648982Y-47498988D01*
X79673515Y-47720072D01*
X79695846Y-47900296D01*
X79714081Y-48024198D01*
X79724567Y-48072707D01*
X79742816Y-48064357D01*
X79772514Y-47977605D01*
X79812278Y-47817738D01*
X79860726Y-47590043D01*
X79890590Y-47437727D01*
X79937282Y-47193730D01*
X79979869Y-46971353D01*
X80015186Y-46787105D01*
X80040070Y-46657492D01*
X80049814Y-46606942D01*
X80076314Y-46528912D01*
X80133481Y-46496392D01*
X80228293Y-46490525D01*
X80384203Y-46490525D01*
X80526958Y-47241942D01*
X80586340Y-47551748D01*
X80632790Y-47785171D01*
X80668421Y-47949143D01*
X80695345Y-48050600D01*
X80715676Y-48096477D01*
X80731526Y-48093707D01*
X80745009Y-48049225D01*
X80755129Y-47990774D01*
X80767125Y-47896671D01*
X80785079Y-47736352D01*
X80807180Y-47527911D01*
X80831613Y-47289440D01*
X80856565Y-47039033D01*
X80880223Y-46794784D01*
X80900773Y-46574786D01*
X80916402Y-46397132D01*
X80922456Y-46321192D01*
X80936591Y-46224528D01*
X80977167Y-46179540D01*
X81070614Y-46161927D01*
X81098297Y-46159525D01*
X81263105Y-46146025D01*
X81233309Y-46519358D01*
G36*
X78699582Y-46575192D02*
G01*
X78749382Y-46790301D01*
X78806561Y-47050494D01*
X78867633Y-47338512D01*
X78929116Y-47637094D01*
X78987523Y-47928981D01*
X79039372Y-48196912D01*
X79081177Y-48423628D01*
X79109455Y-48591869D01*
X79116199Y-48638942D01*
X79145229Y-48861192D01*
X78991609Y-48861192D01*
X78890655Y-48858608D01*
X78837553Y-48852230D01*
X78835332Y-48850608D01*
X78827937Y-48806855D01*
X78810786Y-48700698D01*
X78787302Y-48553367D01*
X78782415Y-48522525D01*
X78732155Y-48205025D01*
X78139489Y-48205025D01*
X78089229Y-48522525D01*
X78064930Y-48675269D01*
X78046314Y-48790868D01*
X78036806Y-48848089D01*
X78036312Y-48850608D01*
X77996925Y-48857266D01*
X77901903Y-48860940D01*
X77865380Y-48861192D01*
X77758297Y-48856894D01*
X77714623Y-48832854D01*
X77713156Y-48772353D01*
X77717745Y-48744775D01*
X77756040Y-48537062D01*
X77805746Y-48279693D01*
X77863326Y-47989829D01*
X77897938Y-47819209D01*
X78237424Y-47819209D01*
X78239056Y-47824815D01*
X78292400Y-47836868D01*
X78398957Y-47839140D01*
X78455412Y-47836560D01*
X78580729Y-47819857D01*
X78635380Y-47787620D01*
X78640092Y-47760525D01*
X78625530Y-47668430D01*
X78599211Y-47530046D01*
X78565334Y-47364594D01*
X78528094Y-47191294D01*
X78491688Y-47029366D01*
X78460314Y-46898031D01*
X78438168Y-46816508D01*
X78430245Y-46799491D01*
X78412419Y-46849100D01*
X78385388Y-46960702D01*
X78352857Y-47114423D01*
X78318534Y-47290388D01*
X78286123Y-47468723D01*
X78259330Y-47629555D01*
X78241862Y-47753008D01*
X78237424Y-47819209D01*
X77897938Y-47819209D01*
X77925239Y-47684630D01*
X77987949Y-47381257D01*
X78047915Y-47096872D01*
X78101600Y-46848636D01*
X78145464Y-46653711D01*
X78169483Y-46554025D01*
X78266489Y-46173025D01*
X78602815Y-46173025D01*
X78699582Y-46575192D01*
X78699582Y-46575192D01*
G37*
X78699582Y-46575192D02*
X78749382Y-46790301D01*
X78806561Y-47050494D01*
X78867633Y-47338512D01*
X78929116Y-47637094D01*
X78987523Y-47928981D01*
X79039372Y-48196912D01*
X79081177Y-48423628D01*
X79109455Y-48591869D01*
X79116199Y-48638942D01*
X79145229Y-48861192D01*
X78991609Y-48861192D01*
X78890655Y-48858608D01*
X78837553Y-48852230D01*
X78835332Y-48850608D01*
X78827937Y-48806855D01*
X78810786Y-48700698D01*
X78787302Y-48553367D01*
X78782415Y-48522525D01*
X78732155Y-48205025D01*
X78139489Y-48205025D01*
X78089229Y-48522525D01*
X78064930Y-48675269D01*
X78046314Y-48790868D01*
X78036806Y-48848089D01*
X78036312Y-48850608D01*
X77996925Y-48857266D01*
X77901903Y-48860940D01*
X77865380Y-48861192D01*
X77758297Y-48856894D01*
X77714623Y-48832854D01*
X77713156Y-48772353D01*
X77717745Y-48744775D01*
X77756040Y-48537062D01*
X77805746Y-48279693D01*
X77863326Y-47989829D01*
X77897938Y-47819209D01*
X78237424Y-47819209D01*
X78239056Y-47824815D01*
X78292400Y-47836868D01*
X78398957Y-47839140D01*
X78455412Y-47836560D01*
X78580729Y-47819857D01*
X78635380Y-47787620D01*
X78640092Y-47760525D01*
X78625530Y-47668430D01*
X78599211Y-47530046D01*
X78565334Y-47364594D01*
X78528094Y-47191294D01*
X78491688Y-47029366D01*
X78460314Y-46898031D01*
X78438168Y-46816508D01*
X78430245Y-46799491D01*
X78412419Y-46849100D01*
X78385388Y-46960702D01*
X78352857Y-47114423D01*
X78318534Y-47290388D01*
X78286123Y-47468723D01*
X78259330Y-47629555D01*
X78241862Y-47753008D01*
X78237424Y-47819209D01*
X77897938Y-47819209D01*
X77925239Y-47684630D01*
X77987949Y-47381257D01*
X78047915Y-47096872D01*
X78101600Y-46848636D01*
X78145464Y-46653711D01*
X78169483Y-46554025D01*
X78266489Y-46173025D01*
X78602815Y-46173025D01*
X78699582Y-46575192D01*
G36*
X77330104Y-46160172D02*
G01*
X77462155Y-46173025D01*
X77473333Y-47517108D01*
X77484511Y-48861192D01*
X77146339Y-48861192D01*
X77134914Y-47961608D01*
X77123489Y-47062025D01*
X76906921Y-47612358D01*
X76814520Y-47851596D01*
X76721636Y-48099707D01*
X76638888Y-48327876D01*
X76576896Y-48507290D01*
X76575362Y-48511942D01*
X76518948Y-48679663D01*
X76477087Y-48782679D01*
X76438026Y-48836758D01*
X76390010Y-48857671D01*
X76321289Y-48861189D01*
X76315084Y-48861192D01*
X76169799Y-48861192D01*
X76180977Y-47517108D01*
X76192155Y-46173025D01*
X76488489Y-46173025D01*
X76509655Y-46975915D01*
X76530822Y-47778806D01*
X76674137Y-47399249D01*
X76756226Y-47188733D01*
X76856851Y-46940703D01*
X76959784Y-46694844D01*
X77007752Y-46583505D01*
X77091053Y-46394684D01*
X77150758Y-46270632D01*
X77196759Y-46198356D01*
X77238950Y-46164862D01*
X77287225Y-46157160D01*
X77330104Y-46160172D01*
X77330104Y-46160172D01*
G37*
X77330104Y-46160172D02*
X77462155Y-46173025D01*
X77473333Y-47517108D01*
X77484511Y-48861192D01*
X77146339Y-48861192D01*
X77134914Y-47961608D01*
X77123489Y-47062025D01*
X76906921Y-47612358D01*
X76814520Y-47851596D01*
X76721636Y-48099707D01*
X76638888Y-48327876D01*
X76576896Y-48507290D01*
X76575362Y-48511942D01*
X76518948Y-48679663D01*
X76477087Y-48782679D01*
X76438026Y-48836758D01*
X76390010Y-48857671D01*
X76321289Y-48861189D01*
X76315084Y-48861192D01*
X76169799Y-48861192D01*
X76180977Y-47517108D01*
X76192155Y-46173025D01*
X76488489Y-46173025D01*
X76509655Y-46975915D01*
X76530822Y-47778806D01*
X76674137Y-47399249D01*
X76756226Y-47188733D01*
X76856851Y-46940703D01*
X76959784Y-46694844D01*
X77007752Y-46583505D01*
X77091053Y-46394684D01*
X77150758Y-46270632D01*
X77196759Y-46198356D01*
X77238950Y-46164862D01*
X77287225Y-46157160D01*
X77330104Y-46160172D01*
G36*
X90843103Y-46162568D02*
G01*
X90999165Y-46175623D01*
X91123962Y-46192792D01*
X91191307Y-46210438D01*
X91192353Y-46211051D01*
X91207611Y-46247532D01*
X91219774Y-46339720D01*
X91229044Y-46493015D01*
X91235624Y-46712817D01*
X91239717Y-47004526D01*
X91241525Y-47373543D01*
X91241655Y-47525601D01*
X91241655Y-48809680D01*
X91146405Y-48832398D01*
X90921049Y-48870677D01*
X90706420Y-48879830D01*
X90535043Y-48858652D01*
X90523535Y-48855422D01*
X90381454Y-48797656D01*
X90253519Y-48723888D01*
X90118961Y-48581173D01*
X90011064Y-48373515D01*
X89931370Y-48116826D01*
X89881422Y-47827017D01*
X89862765Y-47520002D01*
X89863759Y-47498362D01*
X90225891Y-47498362D01*
X90238966Y-47832867D01*
X90280377Y-48091911D01*
X90352732Y-48280696D01*
X90458641Y-48404423D01*
X90600713Y-48468294D01*
X90718261Y-48480192D01*
X90902989Y-48480192D01*
X90902989Y-46532858D01*
X90730399Y-46532858D01*
X90584136Y-46552415D01*
X90468005Y-46624202D01*
X90438056Y-46652611D01*
X90344967Y-46772503D01*
X90281326Y-46924154D01*
X90243317Y-47122784D01*
X90227120Y-47383614D01*
X90225891Y-47498362D01*
X89863759Y-47498362D01*
X89876940Y-47211691D01*
X89925492Y-46917997D01*
X90009964Y-46654832D01*
X90045450Y-46578451D01*
X90178006Y-46376808D01*
X90341518Y-46244227D01*
X90548155Y-46174361D01*
X90810090Y-46160866D01*
X90843103Y-46162568D01*
X90843103Y-46162568D01*
G37*
X90843103Y-46162568D02*
X90999165Y-46175623D01*
X91123962Y-46192792D01*
X91191307Y-46210438D01*
X91192353Y-46211051D01*
X91207611Y-46247532D01*
X91219774Y-46339720D01*
X91229044Y-46493015D01*
X91235624Y-46712817D01*
X91239717Y-47004526D01*
X91241525Y-47373543D01*
X91241655Y-47525601D01*
X91241655Y-48809680D01*
X91146405Y-48832398D01*
X90921049Y-48870677D01*
X90706420Y-48879830D01*
X90535043Y-48858652D01*
X90523535Y-48855422D01*
X90381454Y-48797656D01*
X90253519Y-48723888D01*
X90118961Y-48581173D01*
X90011064Y-48373515D01*
X89931370Y-48116826D01*
X89881422Y-47827017D01*
X89862765Y-47520002D01*
X89863759Y-47498362D01*
X90225891Y-47498362D01*
X90238966Y-47832867D01*
X90280377Y-48091911D01*
X90352732Y-48280696D01*
X90458641Y-48404423D01*
X90600713Y-48468294D01*
X90718261Y-48480192D01*
X90902989Y-48480192D01*
X90902989Y-46532858D01*
X90730399Y-46532858D01*
X90584136Y-46552415D01*
X90468005Y-46624202D01*
X90438056Y-46652611D01*
X90344967Y-46772503D01*
X90281326Y-46924154D01*
X90243317Y-47122784D01*
X90227120Y-47383614D01*
X90225891Y-47498362D01*
X89863759Y-47498362D01*
X89876940Y-47211691D01*
X89925492Y-46917997D01*
X90009964Y-46654832D01*
X90045450Y-46578451D01*
X90178006Y-46376808D01*
X90341518Y-46244227D01*
X90548155Y-46174361D01*
X90810090Y-46160866D01*
X90843103Y-46162568D01*
M02*
