G04 #@! TF.GenerationSoftware,KiCad,Pcbnew,5.1.2-f72e74a~84~ubuntu16.04.1*
G04 #@! TF.CreationDate,2019-05-06T13:36:40+08:00*
G04 #@! TF.ProjectId,8Bit_EuroRack,38426974-5f45-4757-926f-5261636b2e6b,rev?*
G04 #@! TF.SameCoordinates,Original*
G04 #@! TF.FileFunction,Profile,NP*
%FSLAX46Y46*%
G04 Gerber Fmt 4.6, Leading zero omitted, Abs format (unit mm)*
G04 Created by KiCad (PCBNEW 5.1.2-f72e74a~84~ubuntu16.04.1) date 2019-05-06 13:36:40*
%MOMM*%
%LPD*%
G04 APERTURE LIST*
%ADD10C,0.100000*%
G04 APERTURE END LIST*
D10*
X85789733Y-77400514D02*
X85789738Y-77400467D01*
X85830633Y-77406414D02*
X85789733Y-77400514D01*
X86104098Y-77473524D02*
X85830633Y-77406414D01*
X86412031Y-77569964D02*
X86104098Y-77473524D01*
X86712152Y-77688807D02*
X86412031Y-77569964D01*
X87003109Y-77828968D02*
X86712152Y-77688807D01*
X87283548Y-77989366D02*
X87003109Y-77828968D01*
X87552115Y-78168918D02*
X87283548Y-77989366D01*
X87807458Y-78366541D02*
X87552115Y-78168918D01*
X88048222Y-78581154D02*
X87807458Y-78366541D01*
X88203282Y-78732809D02*
X88048222Y-78581154D01*
X88274512Y-78811389D02*
X88203282Y-78732809D01*
X88312452Y-78893569D02*
X88274512Y-78811389D01*
X88116759Y-79085481D02*
X88312452Y-78893569D01*
X87910503Y-79268250D02*
X88116759Y-79085481D01*
X87495078Y-79631325D02*
X87910503Y-79268250D01*
X87701674Y-79892792D02*
X87495078Y-79631325D01*
X87880976Y-80173411D02*
X87701674Y-79892792D01*
X88032944Y-80469920D02*
X87880976Y-80173411D01*
X88157540Y-80779056D02*
X88032944Y-80469920D01*
X88717852Y-80589734D02*
X88157540Y-80779056D01*
X88847417Y-80549754D02*
X88717852Y-80589734D01*
X88976569Y-80497304D02*
X88847417Y-80549754D01*
X89106169Y-80459734D02*
X88976569Y-80497304D01*
X89171409Y-80455034D02*
X89106169Y-80459734D01*
X89237079Y-80464334D02*
X89171409Y-80455034D01*
X89328719Y-80772750D02*
X89237079Y-80464334D01*
X89398119Y-81086819D02*
X89328719Y-80772750D01*
X89445119Y-81404957D02*
X89398119Y-81086819D01*
X89469549Y-81725575D02*
X89445119Y-81404957D01*
X89471249Y-82047088D02*
X89469549Y-81725575D01*
X89450049Y-82367908D02*
X89471249Y-82047088D01*
X89405779Y-82686449D02*
X89450049Y-82367908D01*
X89338279Y-83001124D02*
X89405779Y-82686449D01*
X89307909Y-83100724D02*
X89338279Y-83001124D01*
X89285999Y-83211292D02*
X89307909Y-83100724D01*
X89250609Y-83309082D02*
X89285999Y-83211292D01*
X89220999Y-83345762D02*
X89250609Y-83309082D01*
X89179799Y-83370342D02*
X89220999Y-83345762D01*
X88922162Y-83299092D02*
X89179799Y-83370342D01*
X88665097Y-83213342D02*
X88922162Y-83299092D01*
X88151071Y-83037827D02*
X88665097Y-83213342D01*
X88028255Y-83346859D02*
X88151071Y-83037827D01*
X87875560Y-83642406D02*
X88028255Y-83346859D01*
X87695121Y-83921951D02*
X87875560Y-83642406D01*
X87489071Y-84182978D02*
X87695121Y-83921951D01*
X87956725Y-84594578D02*
X87489071Y-84182978D01*
X88050375Y-84682068D02*
X87956725Y-84594578D01*
X88154869Y-84762668D02*
X88050375Y-84682068D01*
X88247509Y-84850488D02*
X88154869Y-84762668D01*
X88305609Y-84959667D02*
X88247509Y-84850488D01*
X88085535Y-85189853D02*
X88305609Y-84959667D01*
X87850001Y-85404109D02*
X88085535Y-85189853D01*
X87600259Y-85601596D02*
X87850001Y-85404109D01*
X87337561Y-85781477D02*
X87600259Y-85601596D01*
X87063155Y-85942916D02*
X87337561Y-85781477D01*
X86778295Y-86085074D02*
X87063155Y-85942916D01*
X86484231Y-86207115D02*
X86778295Y-86085074D01*
X86182213Y-86308202D02*
X86484231Y-86207115D01*
X86075871Y-86334522D02*
X86182213Y-86308202D01*
X85964718Y-86371462D02*
X86075871Y-86334522D01*
X85857313Y-86391812D02*
X85964718Y-86371462D01*
X85807693Y-86387212D02*
X85857313Y-86391812D01*
X85762223Y-86368302D02*
X85807693Y-86387212D01*
X85695353Y-86108834D02*
X85762223Y-86368302D01*
X85640723Y-85842719D02*
X85695353Y-86108834D01*
X85535677Y-85308438D02*
X85640723Y-85842719D01*
X85206560Y-85356508D02*
X85535677Y-85308438D01*
X84874414Y-85371818D02*
X85206560Y-85356508D01*
X84542173Y-85355808D02*
X84874414Y-85371818D01*
X84212767Y-85309938D02*
X84542173Y-85355808D01*
X84094374Y-85900093D02*
X84212767Y-85309938D01*
X84064464Y-86030887D02*
X84094374Y-85900093D01*
X84045604Y-86167469D02*
X84064464Y-86030887D01*
X84014324Y-86297486D02*
X84045604Y-86167469D01*
X83947164Y-86408582D02*
X84014324Y-86297486D01*
X83634626Y-86332102D02*
X83947164Y-86408582D01*
X83328362Y-86233772D02*
X83634626Y-86332102D01*
X83029737Y-86114306D02*
X83328362Y-86233772D01*
X82740116Y-85974427D02*
X83029737Y-86114306D01*
X82460863Y-85814852D02*
X82740116Y-85974427D01*
X82193342Y-85636299D02*
X82460863Y-85814852D01*
X81938918Y-85439486D02*
X82193342Y-85636299D01*
X81698955Y-85225131D02*
X81938918Y-85439486D01*
X81629400Y-85149541D02*
X81698955Y-85225131D01*
X81544733Y-85076411D02*
X81629400Y-85149541D01*
X81476492Y-84998411D02*
X81544733Y-85076411D01*
X81458387Y-84955291D02*
X81476492Y-84998411D01*
X81456217Y-84908211D02*
X81458387Y-84955291D01*
X81646940Y-84720449D02*
X81456217Y-84908211D01*
X81849949Y-84540359D02*
X81646940Y-84720449D01*
X82259927Y-84182882D02*
X81849949Y-84540359D01*
X82052519Y-83922493D02*
X82259927Y-84182882D01*
X81872666Y-83642635D02*
X82052519Y-83922493D01*
X81720182Y-83346743D02*
X81872666Y-83642635D01*
X81594877Y-83038249D02*
X81720182Y-83346743D01*
X81029906Y-83229255D02*
X81594877Y-83038249D01*
X80901438Y-83268675D02*
X81029906Y-83229255D01*
X80773466Y-83320705D02*
X80901438Y-83268675D01*
X80645052Y-83358715D02*
X80773466Y-83320705D01*
X80515257Y-83356115D02*
X80645052Y-83358715D01*
X80422681Y-83047652D02*
X80515257Y-83356115D01*
X80352375Y-82733451D02*
X80422681Y-83047652D01*
X80304498Y-82415108D02*
X80352375Y-82733451D01*
X80279207Y-82094214D02*
X80304498Y-82415108D01*
X80276657Y-81772362D02*
X80279207Y-82094214D01*
X80297011Y-81451146D02*
X80276657Y-81772362D01*
X80340424Y-81132160D02*
X80297011Y-81451146D01*
X80407055Y-80816995D02*
X80340424Y-81132160D01*
X80437157Y-80716776D02*
X80407055Y-80816995D01*
X80458966Y-80605824D02*
X80437157Y-80716776D01*
X80495228Y-80508534D02*
X80458966Y-80605824D01*
X80525887Y-80472644D02*
X80495228Y-80508534D01*
X80568689Y-80449314D02*
X80525887Y-80472644D01*
X80825215Y-80520034D02*
X80568689Y-80449314D01*
X81081270Y-80605304D02*
X80825215Y-80520034D01*
X81593245Y-80780065D02*
X81081270Y-80605304D01*
X81715209Y-80470207D02*
X81593245Y-80780065D01*
X81867392Y-80173902D02*
X81715209Y-80470207D01*
X82047357Y-79893487D02*
X81867392Y-80173902D01*
X82252665Y-79631297D02*
X82047357Y-79893487D01*
X81830248Y-79259875D02*
X82252665Y-79631297D01*
X81725091Y-79162295D02*
X81830248Y-79259875D01*
X81609162Y-79071575D02*
X81725091Y-79162295D01*
X81506033Y-78972785D02*
X81609162Y-79071575D01*
X81466634Y-78915695D02*
X81506033Y-78972785D01*
X81439275Y-78850985D02*
X81466634Y-78915695D01*
X81661133Y-78618698D02*
X81439275Y-78850985D01*
X81898743Y-78402695D02*
X81661133Y-78618698D01*
X82150809Y-78203797D02*
X81898743Y-78402695D01*
X82416033Y-78022823D02*
X82150809Y-78203797D01*
X82693120Y-77860594D02*
X82416033Y-78022823D01*
X82980774Y-77717929D02*
X82693120Y-77860594D01*
X83277697Y-77595649D02*
X82980774Y-77717929D01*
X83582594Y-77494574D02*
X83277697Y-77595649D01*
X83685710Y-77470944D02*
X83582594Y-77494574D01*
X83794191Y-77433214D02*
X83685710Y-77470944D01*
X83897879Y-77415204D02*
X83794191Y-77433214D01*
X83944749Y-77424204D02*
X83897879Y-77415204D01*
X83986609Y-77450774D02*
X83944749Y-77424204D01*
X84053329Y-77707395D02*
X83986609Y-77450774D01*
X84107049Y-77970939D02*
X84053329Y-77707395D01*
X84212528Y-78499665D02*
X84107049Y-77970939D01*
X84542128Y-78450895D02*
X84212528Y-78499665D01*
X84874825Y-78435195D02*
X84542128Y-78450895D01*
X85207626Y-78451205D02*
X84874825Y-78435195D01*
X85537538Y-78497565D02*
X85207626Y-78451205D01*
X85620688Y-78081129D02*
X85537538Y-78497565D01*
X85657998Y-77908926D02*
X85620688Y-78081129D01*
X85686828Y-77733128D02*
X85657998Y-77908926D01*
X85724848Y-77561165D02*
X85686828Y-77733128D01*
X85789738Y-77400467D02*
X85724848Y-77561165D01*
X85789738Y-54373350D02*
X85789738Y-54373350D01*
X85830633Y-54379297D02*
X85789738Y-54373350D01*
X86104098Y-54446407D02*
X85830633Y-54379297D01*
X86412031Y-54542847D02*
X86104098Y-54446407D01*
X86712152Y-54661690D02*
X86412031Y-54542847D01*
X87003109Y-54801851D02*
X86712152Y-54661690D01*
X87283548Y-54962249D02*
X87003109Y-54801851D01*
X87552115Y-55141801D02*
X87283548Y-54962249D01*
X87807458Y-55339424D02*
X87552115Y-55141801D01*
X88048222Y-55554037D02*
X87807458Y-55339424D01*
X88203282Y-55705692D02*
X88048222Y-55554037D01*
X88274512Y-55784272D02*
X88203282Y-55705692D01*
X88312452Y-55866452D02*
X88274512Y-55784272D01*
X88116759Y-56058364D02*
X88312452Y-55866452D01*
X87910503Y-56241133D02*
X88116759Y-56058364D01*
X87495078Y-56604208D02*
X87910503Y-56241133D01*
X87701674Y-56865675D02*
X87495078Y-56604208D01*
X87880976Y-57146294D02*
X87701674Y-56865675D01*
X88032944Y-57442803D02*
X87880976Y-57146294D01*
X88157540Y-57751939D02*
X88032944Y-57442803D01*
X88717852Y-57562617D02*
X88157540Y-57751939D01*
X88847417Y-57522637D02*
X88717852Y-57562617D01*
X88976569Y-57470187D02*
X88847417Y-57522637D01*
X89106169Y-57432617D02*
X88976569Y-57470187D01*
X89171409Y-57427917D02*
X89106169Y-57432617D01*
X89237079Y-57437217D02*
X89171409Y-57427917D01*
X89328719Y-57745633D02*
X89237079Y-57437217D01*
X89398119Y-58059702D02*
X89328719Y-57745633D01*
X89445119Y-58377840D02*
X89398119Y-58059702D01*
X89469549Y-58698458D02*
X89445119Y-58377840D01*
X89471249Y-59019971D02*
X89469549Y-58698458D01*
X89450049Y-59340791D02*
X89471249Y-59019971D01*
X89405779Y-59659332D02*
X89450049Y-59340791D01*
X89338279Y-59974007D02*
X89405779Y-59659332D01*
X89307909Y-60073607D02*
X89338279Y-59974007D01*
X89285999Y-60184175D02*
X89307909Y-60073607D01*
X89250609Y-60281965D02*
X89285999Y-60184175D01*
X89220999Y-60318645D02*
X89250609Y-60281965D01*
X89179799Y-60343225D02*
X89220999Y-60318645D01*
X88922162Y-60271975D02*
X89179799Y-60343225D01*
X88665097Y-60186225D02*
X88922162Y-60271975D01*
X88151071Y-60010710D02*
X88665097Y-60186225D01*
X88028255Y-60319742D02*
X88151071Y-60010710D01*
X87875560Y-60615289D02*
X88028255Y-60319742D01*
X87695121Y-60894834D02*
X87875560Y-60615289D01*
X87489071Y-61155861D02*
X87695121Y-60894834D01*
X87956725Y-61567461D02*
X87489071Y-61155861D01*
X88050375Y-61654951D02*
X87956725Y-61567461D01*
X88154869Y-61735551D02*
X88050375Y-61654951D01*
X88247509Y-61823371D02*
X88154869Y-61735551D01*
X88305609Y-61932550D02*
X88247509Y-61823371D01*
X88085535Y-62162736D02*
X88305609Y-61932550D01*
X87850001Y-62376992D02*
X88085535Y-62162736D01*
X87600259Y-62574479D02*
X87850001Y-62376992D01*
X87337561Y-62754360D02*
X87600259Y-62574479D01*
X87063155Y-62915799D02*
X87337561Y-62754360D01*
X86778295Y-63057957D02*
X87063155Y-62915799D01*
X86484231Y-63179998D02*
X86778295Y-63057957D01*
X86182213Y-63281085D02*
X86484231Y-63179998D01*
X86075871Y-63307405D02*
X86182213Y-63281085D01*
X85964718Y-63344345D02*
X86075871Y-63307405D01*
X85857313Y-63364695D02*
X85964718Y-63344345D01*
X85807693Y-63360095D02*
X85857313Y-63364695D01*
X85762223Y-63341185D02*
X85807693Y-63360095D01*
X85695353Y-63081717D02*
X85762223Y-63341185D01*
X85640723Y-62815602D02*
X85695353Y-63081717D01*
X85535677Y-62281321D02*
X85640723Y-62815602D01*
X85206560Y-62329391D02*
X85535677Y-62281321D01*
X84874414Y-62344701D02*
X85206560Y-62329391D01*
X84542173Y-62328691D02*
X84874414Y-62344701D01*
X84212767Y-62282821D02*
X84542173Y-62328691D01*
X84094374Y-62872976D02*
X84212767Y-62282821D01*
X84064464Y-63003770D02*
X84094374Y-62872976D01*
X84045604Y-63140352D02*
X84064464Y-63003770D01*
X84014324Y-63270369D02*
X84045604Y-63140352D01*
X83947164Y-63381465D02*
X84014324Y-63270369D01*
X83634626Y-63304985D02*
X83947164Y-63381465D01*
X83328362Y-63206655D02*
X83634626Y-63304985D01*
X83029737Y-63087189D02*
X83328362Y-63206655D01*
X82740116Y-62947310D02*
X83029737Y-63087189D01*
X82460863Y-62787735D02*
X82740116Y-62947310D01*
X82193342Y-62609182D02*
X82460863Y-62787735D01*
X81938918Y-62412369D02*
X82193342Y-62609182D01*
X81698955Y-62198014D02*
X81938918Y-62412369D01*
X81629400Y-62122424D02*
X81698955Y-62198014D01*
X81544733Y-62049294D02*
X81629400Y-62122424D01*
X81476492Y-61971294D02*
X81544733Y-62049294D01*
X81458387Y-61928174D02*
X81476492Y-61971294D01*
X81456217Y-61881094D02*
X81458387Y-61928174D01*
X81646940Y-61693332D02*
X81456217Y-61881094D01*
X81849949Y-61513242D02*
X81646940Y-61693332D01*
X82259927Y-61155765D02*
X81849949Y-61513242D01*
X82052519Y-60895376D02*
X82259927Y-61155765D01*
X81872666Y-60615518D02*
X82052519Y-60895376D01*
X81720182Y-60319626D02*
X81872666Y-60615518D01*
X81594877Y-60011132D02*
X81720182Y-60319626D01*
X81029906Y-60202138D02*
X81594877Y-60011132D01*
X80901438Y-60241558D02*
X81029906Y-60202138D01*
X80773466Y-60293588D02*
X80901438Y-60241558D01*
X80645052Y-60331598D02*
X80773466Y-60293588D01*
X80515257Y-60328998D02*
X80645052Y-60331598D01*
X80422681Y-60020535D02*
X80515257Y-60328998D01*
X80352375Y-59706334D02*
X80422681Y-60020535D01*
X80304498Y-59387991D02*
X80352375Y-59706334D01*
X80279207Y-59067097D02*
X80304498Y-59387991D01*
X80276657Y-58745245D02*
X80279207Y-59067097D01*
X80297011Y-58424029D02*
X80276657Y-58745245D01*
X80340424Y-58105043D02*
X80297011Y-58424029D01*
X80407055Y-57789878D02*
X80340424Y-58105043D01*
X80437157Y-57689659D02*
X80407055Y-57789878D01*
X80458966Y-57578707D02*
X80437157Y-57689659D01*
X80495228Y-57481417D02*
X80458966Y-57578707D01*
X80525887Y-57445527D02*
X80495228Y-57481417D01*
X80568689Y-57422197D02*
X80525887Y-57445527D01*
X80825215Y-57492917D02*
X80568689Y-57422197D01*
X81081270Y-57578187D02*
X80825215Y-57492917D01*
X81593245Y-57752948D02*
X81081270Y-57578187D01*
X81715209Y-57443090D02*
X81593245Y-57752948D01*
X81867392Y-57146785D02*
X81715209Y-57443090D01*
X82047357Y-56866370D02*
X81867392Y-57146785D01*
X82252665Y-56604180D02*
X82047357Y-56866370D01*
X81830248Y-56232758D02*
X82252665Y-56604180D01*
X81725091Y-56135178D02*
X81830248Y-56232758D01*
X81609162Y-56044458D02*
X81725091Y-56135178D01*
X81506033Y-55945668D02*
X81609162Y-56044458D01*
X81466634Y-55888578D02*
X81506033Y-55945668D01*
X81439275Y-55823868D02*
X81466634Y-55888578D01*
X81661133Y-55591581D02*
X81439275Y-55823868D01*
X81898743Y-55375578D02*
X81661133Y-55591581D01*
X82150809Y-55176680D02*
X81898743Y-55375578D01*
X82416033Y-54995706D02*
X82150809Y-55176680D01*
X82693120Y-54833477D02*
X82416033Y-54995706D01*
X82980774Y-54690812D02*
X82693120Y-54833477D01*
X83277697Y-54568532D02*
X82980774Y-54690812D01*
X83582594Y-54467457D02*
X83277697Y-54568532D01*
X83685710Y-54443827D02*
X83582594Y-54467457D01*
X83794191Y-54406097D02*
X83685710Y-54443827D01*
X83897879Y-54388087D02*
X83794191Y-54406097D01*
X83944749Y-54397087D02*
X83897879Y-54388087D01*
X83986609Y-54423657D02*
X83944749Y-54397087D01*
X84053329Y-54680278D02*
X83986609Y-54423657D01*
X84107049Y-54943822D02*
X84053329Y-54680278D01*
X84212528Y-55472548D02*
X84107049Y-54943822D01*
X84542128Y-55423778D02*
X84212528Y-55472548D01*
X84874825Y-55408078D02*
X84542128Y-55423778D01*
X85207626Y-55424088D02*
X84874825Y-55408078D01*
X85537538Y-55470448D02*
X85207626Y-55424088D01*
X85620688Y-55054012D02*
X85537538Y-55470448D01*
X85657998Y-54881809D02*
X85620688Y-55054012D01*
X85686828Y-54706011D02*
X85657998Y-54881809D01*
X85724848Y-54534048D02*
X85686828Y-54706011D01*
X85789738Y-54373350D02*
X85724848Y-54534048D01*
X79345688Y-163446138D02*
X79345688Y-163446138D01*
X79345688Y-163446138D02*
X79345688Y-163446138D01*
X79180238Y-163454138D02*
X79345688Y-163446138D01*
X79019678Y-163478538D02*
X79180238Y-163454138D01*
X78864788Y-163518138D02*
X79019678Y-163478538D01*
X78716388Y-163572238D02*
X78864788Y-163518138D01*
X78575268Y-163640038D02*
X78716388Y-163572238D01*
X78442228Y-163720738D02*
X78575268Y-163640038D01*
X78203578Y-163917478D02*
X78442228Y-163720738D01*
X78006838Y-164156128D02*
X78203578Y-163917478D01*
X77926138Y-164289168D02*
X78006838Y-164156128D01*
X77858338Y-164430288D02*
X77926138Y-164289168D01*
X77804238Y-164578688D02*
X77858338Y-164430288D01*
X77764638Y-164733568D02*
X77804238Y-164578688D01*
X77740238Y-164894138D02*
X77764638Y-164733568D01*
X77732238Y-165059588D02*
X77740238Y-164894138D01*
X77740238Y-165225038D02*
X77732238Y-165059588D01*
X77764638Y-165385608D02*
X77740238Y-165225038D01*
X77804238Y-165540488D02*
X77764638Y-165385608D01*
X77858338Y-165688888D02*
X77804238Y-165540488D01*
X77926138Y-165830008D02*
X77858338Y-165688888D01*
X78006838Y-165963048D02*
X77926138Y-165830008D01*
X78203578Y-166201698D02*
X78006838Y-165963048D01*
X78442228Y-166398438D02*
X78203578Y-166201698D01*
X78575268Y-166479138D02*
X78442228Y-166398438D01*
X78716388Y-166546938D02*
X78575268Y-166479138D01*
X78864788Y-166601038D02*
X78716388Y-166546938D01*
X79019678Y-166640638D02*
X78864788Y-166601038D01*
X79180238Y-166665038D02*
X79019678Y-166640638D01*
X79345688Y-166673038D02*
X79180238Y-166665038D01*
X81045688Y-166673038D02*
X79345688Y-166673038D01*
X81211138Y-166665038D02*
X81045688Y-166673038D01*
X81371708Y-166640638D02*
X81211138Y-166665038D01*
X81526588Y-166601038D02*
X81371708Y-166640638D01*
X81674988Y-166546938D02*
X81526588Y-166601038D01*
X81816118Y-166479138D02*
X81674988Y-166546938D01*
X81949158Y-166398438D02*
X81816118Y-166479138D01*
X82187808Y-166201698D02*
X81949158Y-166398438D01*
X82384548Y-165963048D02*
X82187808Y-166201698D01*
X82465248Y-165830008D02*
X82384548Y-165963048D01*
X82533048Y-165688888D02*
X82465248Y-165830008D01*
X82587148Y-165540488D02*
X82533048Y-165688888D01*
X82626748Y-165385608D02*
X82587148Y-165540488D01*
X82651148Y-165225038D02*
X82626748Y-165385608D01*
X82659148Y-165059588D02*
X82651148Y-165225038D01*
X82651148Y-164894138D02*
X82659148Y-165059588D01*
X82626748Y-164733568D02*
X82651148Y-164894138D01*
X82587148Y-164578688D02*
X82626748Y-164733568D01*
X82533048Y-164430288D02*
X82587148Y-164578688D01*
X82465248Y-164289168D02*
X82533048Y-164430288D01*
X82384548Y-164156128D02*
X82465248Y-164289168D01*
X82187808Y-163917478D02*
X82384548Y-164156128D01*
X81949158Y-163720738D02*
X82187808Y-163917478D01*
X81816118Y-163640038D02*
X81949158Y-163720738D01*
X81674988Y-163572238D02*
X81816118Y-163640038D01*
X81526588Y-163518138D02*
X81674988Y-163572238D01*
X81371708Y-163478538D02*
X81526588Y-163518138D01*
X81211138Y-163454138D02*
X81371708Y-163478538D01*
X81045688Y-163446138D02*
X81211138Y-163454138D01*
X79345688Y-163446138D02*
X81045688Y-163446138D01*
X79345688Y-40946138D02*
X79345688Y-40946138D01*
X79345688Y-40946138D02*
X79345688Y-40946138D01*
X79180238Y-40954437D02*
X79345688Y-40946138D01*
X79019678Y-40978807D02*
X79180238Y-40954437D01*
X78864788Y-41018448D02*
X79019678Y-40978807D01*
X78716388Y-41072561D02*
X78864788Y-41018448D01*
X78575268Y-41140345D02*
X78716388Y-41072561D01*
X78442228Y-41221004D02*
X78575268Y-41140345D01*
X78203578Y-41417745D02*
X78442228Y-41221004D01*
X78006838Y-41656393D02*
X78203578Y-41417745D01*
X77926138Y-41789434D02*
X78006838Y-41656393D01*
X77858338Y-41930555D02*
X77926138Y-41789434D01*
X77804238Y-42078957D02*
X77858338Y-41930555D01*
X77764638Y-42233840D02*
X77804238Y-42078957D01*
X77740238Y-42394406D02*
X77764638Y-42233840D01*
X77732238Y-42559856D02*
X77740238Y-42394406D01*
X77740238Y-42725306D02*
X77732238Y-42559856D01*
X77764638Y-42885872D02*
X77740238Y-42725306D01*
X77804238Y-43040755D02*
X77764638Y-42885872D01*
X77858338Y-43189157D02*
X77804238Y-43040755D01*
X77926138Y-43330278D02*
X77858338Y-43189157D01*
X78006838Y-43463319D02*
X77926138Y-43330278D01*
X78203578Y-43701967D02*
X78006838Y-43463319D01*
X78442228Y-43898709D02*
X78203578Y-43701967D01*
X78575268Y-43979368D02*
X78442228Y-43898709D01*
X78716388Y-44047153D02*
X78575268Y-43979368D01*
X78864788Y-44101266D02*
X78716388Y-44047153D01*
X79019678Y-44140907D02*
X78864788Y-44101266D01*
X79180238Y-44165277D02*
X79019678Y-44140907D01*
X79345688Y-44173577D02*
X79180238Y-44165277D01*
X81045688Y-44173577D02*
X79345688Y-44173577D01*
X81211138Y-44165277D02*
X81045688Y-44173577D01*
X81371708Y-44140907D02*
X81211138Y-44165277D01*
X81526588Y-44101266D02*
X81371708Y-44140907D01*
X81674988Y-44047153D02*
X81526588Y-44101266D01*
X81816118Y-43979368D02*
X81674988Y-44047153D01*
X81949158Y-43898709D02*
X81816118Y-43979368D01*
X82187808Y-43701967D02*
X81949158Y-43898709D01*
X82384548Y-43463319D02*
X82187808Y-43701967D01*
X82465248Y-43330278D02*
X82384548Y-43463319D01*
X82533048Y-43189157D02*
X82465248Y-43330278D01*
X82587148Y-43040755D02*
X82533048Y-43189157D01*
X82626748Y-42885872D02*
X82587148Y-43040755D01*
X82651148Y-42725306D02*
X82626748Y-42885872D01*
X82659148Y-42559856D02*
X82651148Y-42725306D01*
X82651148Y-42394406D02*
X82659148Y-42559856D01*
X82626748Y-42233840D02*
X82651148Y-42394406D01*
X82587148Y-42078957D02*
X82626748Y-42233840D01*
X82533048Y-41930555D02*
X82587148Y-42078957D01*
X82465248Y-41789434D02*
X82533048Y-41930555D01*
X82384548Y-41656393D02*
X82465248Y-41789434D01*
X82187808Y-41417745D02*
X82384548Y-41656393D01*
X81949158Y-41221004D02*
X82187808Y-41417745D01*
X81816118Y-41140345D02*
X81949158Y-41221004D01*
X81674988Y-41072561D02*
X81816118Y-41140345D01*
X81526588Y-41018448D02*
X81674988Y-41072561D01*
X81371708Y-40978807D02*
X81526588Y-41018448D01*
X81211138Y-40954437D02*
X81371708Y-40978807D01*
X81045688Y-40946138D02*
X81211138Y-40954437D01*
X79345688Y-40946138D02*
X81045688Y-40946138D01*
X72620968Y-168074728D02*
X72620968Y-168074728D01*
X72620968Y-39545199D02*
X72620968Y-168074728D01*
X97849758Y-39545199D02*
X72620968Y-39545199D01*
X97849758Y-168074728D02*
X97849758Y-39545199D01*
X72620968Y-168074728D02*
X97849758Y-168074728D01*
M02*
